<?xml version="1.0" encoding="UTF-8" standalone="no"?>
<!-- Created with Inkscape (http://www.inkscape.org/) -->

<svg
   version="1.1"
   id="svg2708"
   width="357.27911"
   height="373.89337"
   viewBox="0 0 357.27912 373.89337"
   sodipodi:docname="Grapes19b.svg"
   inkscape:version="1.2.2 (732a01da63, 2022-12-09, custom)"
   xmlns:inkscape="http://www.inkscape.org/namespaces/inkscape"
   xmlns:sodipodi="http://sodipodi.sourceforge.net/DTD/sodipodi-0.dtd"
   xmlns="http://www.w3.org/2000/svg"
   xmlns:svg="http://www.w3.org/2000/svg">
  <defs
     id="defs2712" />
  <sodipodi:namedview
     id="namedview2710"
     pagecolor="#ffffff"
     bordercolor="#000000"
     borderopacity="0.25"
     inkscape:showpageshadow="2"
     inkscape:pageopacity="0.0"
     inkscape:pagecheckerboard="0"
     inkscape:deskcolor="#d1d1d1"
     showgrid="false"
     inkscape:zoom="0.98603159"
     inkscape:cx="174.4366"
     inkscape:cy="195.73409"
     inkscape:window-width="1920"
     inkscape:window-height="1031"
     inkscape:window-x="0"
     inkscape:window-y="25"
     inkscape:window-maximized="1"
     inkscape:current-layer="svg2708" />
  <g
     inkscape:groupmode="layer"
     id="layer2"
     inkscape:label="Layer 2">
    <path
       id="path3189"
       style="fill:#000000;stroke-width:1.33333"
       d="M 252.10139 27.430545 C 251.11262 27.483267 251.01006 28.377153 251.32209 30.842654 C 251.69478 33.787554 251.04476 35.230912 248.63264 36.811404 C 246.88284 37.957914 244.82399 38.509169 244.05842 38.036014 C 243.29283 37.562858 242.66584 37.852563 242.66584 38.678592 C 242.66584 39.625909 241.56714 39.831243 239.68928 39.235233 C 238.05184 38.71553 230.70118 38.352622 223.35529 38.428592 C 212.57723 38.540067 208.77666 39.13422 203.66584 41.510623 C 200.18251 43.130285 197.33381 45.188655 197.33381 46.084842 C 197.33381 48.549244 194.60155 49.16807 179.33381 50.155154 C 171.63342 50.652997 165.33381 51.48708 165.33381 52.00867 C 165.33381 52.53026 169.85154 53.729897 175.37482 54.674686 C 180.89811 55.619476 185.74904 56.927449 186.15412 57.582889 C 186.55921 58.238331 188.04018 58.409661 189.44514 57.963748 C 190.93016 57.492415 191.99982 57.782041 191.99982 58.655154 C 191.99982 59.481185 192.50424 59.844901 193.12092 59.463748 C 195.05521 58.26829 199.5961 65.814893 199.46076 70.000858 C 199.38236 72.425728 196.26626 78.822979 191.54279 86.254764 C 182.41103 100.62247 179.05007 102.42443 171.27912 97.121951 C 165.51225 93.186953 163.15484 87.322498 161.19318 72.026248 C 159.96683 62.463718 158.86443 58.832176 155.97443 54.842654 C 149.70509 46.188078 144.88839 44.700183 122.25764 44.432498 C 109.20577 44.278115 101.86129 43.657774 100.58967 42.60242 C 99.531717 41.724404 98.665839 41.43876 98.665839 41.967654 C 98.665839 42.496548 96.532233 41.670817 93.923652 40.131717 C 88.078556 36.683025 87.545126 36.658368 89.286933 39.912967 C 92.072815 45.118435 91.150656 45.766806 82.333808 44.801639 C 77.75048 44.299909 67.400467 43.316958 59.333808 42.618045 C 51.26715 41.919134 41.717343 40.443872 38.113105 39.338748 C 34.508865 38.233611 31.354217 37.533182 31.103339 37.784061 C 30.303636 38.583764 38.695138 49.427813 40.712714 50.202029 C 44.347065 51.596661 41.140077 53.418243 36.562324 52.559451 C 34.052846 52.088662 31.999824 52.095149 31.999824 52.573123 C 31.999824 54.806399 38.108888 61.330718 41.523261 62.744998 C 46.7727 64.919386 46.634359 68.266714 41.333808 67.332889 C 36.083069 66.407841 36.279859 68.13296 41.999824 73.155154 C 46.481705 77.090299 48.321939 82.666873 45.138496 82.666873 C 42.902725 82.666873 50.063583 88.962666 53.562324 90.073123 C 55.201752 90.593459 57.436462 91.912105 58.529121 93.004764 C 60.289102 94.764745 60.068315 94.89744 56.591621 94.16492 C 54.433165 93.710145 51.8342 93.873614 50.81623 94.528201 C 49.405259 95.4355 50.355922 96.619521 54.81623 99.512576 C 62.199557 104.30156 63.129369 105.61584 60.519355 107.56922 C 58.730938 108.90771 59.471898 109.74102 65.544746 113.22351 C 69.462048 115.4699 73.652372 117.31417 74.857246 117.32117 C 78.326659 117.34099 78.896275 120.95594 75.574043 121.87 C 72.815396 122.62899 72.888583 122.8144 76.992011 125.4618 C 79.370869 126.99656 83.757739 128.57936 86.740058 128.97937 C 91.879388 129.6687 92.140513 129.92289 91.747871 133.85242 C 91.379392 137.54013 91.848978 138.17434 95.999824 139.5907 C 98.566488 140.46649 103.48164 141.21727 106.9217 141.25867 C 114.08018 141.3448 115.91832 143.07312 112.66779 146.66492 C 110.50251 149.05753 110.62096 149.2035 115.49592 150.11805 C 118.29509 150.64317 123.60386 150.44656 127.29279 149.68055 C 135.79985 147.91402 139.33081 149.82484 134.61506 153.64344 C 130.56504 156.92294 131.54063 157.39273 139.07404 155.78601 C 146.30943 154.24286 149.97363 155.07595 148.84748 158.01062 C 147.80101 160.73767 153.03483 160.63185 160.16193 157.78015 C 165.12195 155.79554 165.87068 155.77528 167.201 157.59461 C 168.90515 159.92518 173.55326 158.7549 177.77912 154.93055 C 179.15454 153.68583 180.41435 152.66687 180.57795 152.66687 C 180.74154 152.66687 183.65336 156.07648 187.04865 160.245 C 190.44395 164.4135 195.39056 169.81351 198.04279 172.245 C 209.09627 182.3785 209.33381 182.77205 209.33381 190.98328 C 209.33381 197.95686 208.876 199.17768 204.33381 204.32898 C 197.37389 212.22224 196.44221 212.66192 186.66584 212.66492 C 179.96263 212.66672 177.60519 212.13761 176.25764 210.33289 C 175.29939 209.04956 173.60057 208.00086 172.48225 208.00086 C 171.36391 208.00086 167.9472 206.02559 164.89045 203.61219 C 160.22605 199.92948 151.5279 195.12151 145.96271 193.15125 C 142.71335 192.00089 116.33319 173.77966 112.94123 170.34265 L 109.21662 166.56922 L 105.42561 169.26648 C 101.4615 172.08918 96.909906 181.35888 98.046699 184.29383 C 98.41019 185.23228 100.6055 187.20021 102.92365 188.66687 C 117.30558 197.76614 139.44114 210.64504 160.66584 222.26062 C 166.5325 225.47124 171.53273 228.67522 171.77717 229.38172 C 172.02162 230.08823 173.05118 230.66687 174.06428 230.66687 C 175.07737 230.66687 176.54361 231.85681 177.32209 233.3114 C 178.15452 234.86682 179.88077 235.82852 181.5135 235.64539 C 183.04038 235.47412 184.97328 236.41792 185.81037 237.74305 C 187.07958 239.75223 186.66945 240.75628 183.33381 243.79187 C 179.55912 247.22703 177.2 251.00093 175.49592 256.33289 C 174.94582 258.0541 173.31666 258.66687 169.28693 258.66687 C 166.28238 258.66687 162.51372 259.4125 160.91193 260.32508 C 159.31015 261.23766 153.60037 261.98905 148.22248 261.99305 C 139.08309 262 138.22587 262.25376 135.10139 265.88172 C 132.60882 268.77594 131.89049 270.89187 132.27717 274.20398 C 132.75788 278.32161 132.47323 278.70662 128.37482 279.47547 C 123.17904 280.45022 118.6647 285.58502 118.6717 290.51258 C 118.67803 294.93832 123.32512 302.66687 125.98029 302.66687 C 128.51639 302.66687 128.50593 305.21858 125.95686 308.58875 C 123.46099 311.88861 123.48076 315.12719 126.02326 320.04383 C 128.18252 324.21938 134.90131 328.51617 136.81623 326.94617 C 137.45139 326.42541 136.8495 327.33366 135.47834 328.96375 C 131.24128 334.00093 135.33241 346.00295 141.59357 346.9032 C 144.26717 347.28762 144.54656 347.98907 144.2049 353.47351 C 143.86404 358.94469 144.27896 359.99713 148.0135 363.13953 C 151.71614 366.25512 153.55406 367.12397 156.02521 366.92664 C 156.40586 366.89625 156.49694 369.19316 156.22639 372.03015 C 155.83131 376.17291 156.40505 377.85921 159.14045 380.59461 C 161.01366 382.46782 163.73539 384.00086 165.18928 384.00086 C 167.43606 384.00086 167.72486 384.66132 167.11701 388.40711 C 166.55264 391.88488 167.15775 393.71177 169.98615 397.07312 C 174.36671 402.27912 179.82396 402.70214 186.24201 398.33289 C 189.69029 395.98538 190.65103 394.39841 190.65803 391.03797 C 190.66523 387.64535 192.06717 385.38085 197.33381 380.25086 C 202.55635 375.1638 203.99982 372.84525 203.99982 369.54578 C 203.99982 367.22929 203.36432 365.33289 202.58771 365.33289 C 201.81111 365.33289 201.54659 364.7342 201.99982 364.00086 C 202.45304 363.26753 204.01798 362.66687 205.47639 362.66687 C 209.99319 362.66687 214.6621 356.32615 214.701 350.13953 C 214.7327 345.09807 215.14 344.479 219.8885 342.29187 C 225.80949 339.5647 228.68892 334.1756 227.3885 328.25476 C 226.41282 323.81253 221.96756 319.16931 217.99982 318.44812 C 216.53316 318.18154 215.33381 317.07129 215.33381 315.98133 C 215.33381 314.89138 214.73315 313.55916 213.99982 313.02039 C 213.26648 312.48162 214.5357 312.03109 216.82014 312.02039 C 223.05371 311.98975 227.99982 307.48415 227.99982 301.8368 C 227.99982 296.768 225.04049 289.97349 222.36115 288.88953 C 221.19067 288.41599 221.10706 287.8632 222.09162 287.10242 C 222.87566 286.4966 223.66366 282.98903 223.84162 279.30945 C 224.11839 273.58631 223.65921 272.14513 220.66779 269.33484 C 218.02396 266.85108 215.81478 266.0859 211.6092 266.19617 C 207.7701 266.29684 204.60097 265.35902 201.38068 263.17078 C 198.81445 261.42696 194.75366 260.00086 192.35725 260.00086 C 189.96081 260.00086 187.99982 259.41373 187.99982 258.69812 C 187.99982 256.22848 193.28327 248.72005 195.58967 247.91101 C 199.0507 246.69695 209.69626 250.32398 212.15021 253.55359 C 213.39739 255.19497 214.96553 255.97121 215.88459 255.4032 C 216.81328 254.82924 218.8492 255.91282 220.8006 258.01844 C 222.95247 260.34033 225.03164 261.3737 226.68146 260.94226 C 228.08555 260.57508 229.97422 261.16529 230.87678 262.25281 C 231.9525 263.54903 233.81892 263.97063 236.29475 263.47547 C 239.05336 262.92374 240.68057 263.43165 242.33185 265.36023 C 243.57531 266.81247 245.26728 268.00086 246.09162 268.00086 C 248.47849 268.00086 255.8702 272.01265 256.9842 273.91297 C 257.54306 274.86627 262.20048 277.5887 267.33381 279.96375 C 289.41023 290.17793 294.19351 292.5383 297.53889 294.86805 C 299.71066 296.38048 303.40848 297.33289 307.1092 297.33289 C 314.91577 297.33289 318.99994 292.84812 318.39631 284.94031 C 318.04527 280.34145 317.45778 279.54118 313.33381 278.0575 C 310.76714 277.1341 302.36583 273.37435 294.66584 269.70203 C 272.34581 259.05705 259.6881 253.19612 254.61506 251.16101 C 251.52004 249.91941 249.8247 248.32604 249.68928 246.5282 C 249.3688 242.27369 246.74615 239.92805 243.28107 240.79773 C 240.46774 241.50382 240.23302 241.17581 240.56428 237.00086 C 240.97296 231.8502 244.71012 224.49806 248.58576 221.21961 C 250.98088 219.19355 251.04861 218.47483 249.48615 211.49305 C 247.67733 203.41034 248.50003 196.00086 251.20685 196.00086 C 254.21133 196.00086 258.35203 201.77675 266.98029 218.00086 L 275.49006 234.00086 L 285.75959 234.38953 C 297.34173 234.82904 304.10357 232.58968 313.14826 225.32117 C 319.31086 220.36878 319.18287 217.72724 312.53303 212.65515 C 302.22439 204.79237 271.1291 170.18374 271.40803 166.88367 C 271.44914 166.39744 270.51767 164.96465 269.33771 163.69812 C 268.15777 162.4316 265.83404 158.97661 264.17365 156.02234 C 261.328 150.9592 261.29413 150.60742 263.57795 149.89539 C 264.91053 149.47994 266.89358 148.6728 267.98615 148.10047 C 269.21931 147.4545 271.29153 148.03465 273.44904 149.62976 C 277.32861 152.49805 289.00866 154.71185 287.51545 152.29578 C 286.06626 149.95096 288.57757 149.34023 293.77131 150.7743 C 299.16666 152.26402 311.22445 149.99362 308.11701 148.07312 C 305.82016 146.65358 309.40768 145.34751 315.77521 145.28601 C 318.46523 145.26003 322.1665 144.37368 323.99982 143.31531 L 327.33381 141.38953 L 324.33381 140.53992 C 322.68381 140.07208 321.33381 139.12358 321.33381 138.4325 C 321.33381 137.74142 320.73316 137.54763 319.99982 138.00086 C 319.26649 138.45408 318.66584 138.25722 318.66584 137.56336 C 318.66584 136.8695 322.71584 136.06163 327.66584 135.76844 C 333.65854 135.4135 337.98053 134.36117 340.59943 132.62195 C 343.68501 130.57279 344.04547 129.91751 342.2674 129.57508 C 339.0718 128.95966 339.43792 126.66687 342.73225 126.66687 C 349.12247 126.66687 360.36153 117.1614 357.43342 114.23328 C 356.57604 113.37591 358.13131 111.65089 361.93732 109.23719 C 368.24439 105.23736 370.49483 101.00624 367.94709 97.936404 C 366.66242 96.388463 366.74586 96.000858 368.36506 96.000858 C 370.18246 96.000858 378.66584 87.639607 378.66584 85.848514 C 378.66584 85.449097 376.92298 85.503693 374.79279 85.971561 C 370.03718 87.016069 367.59688 84.20127 371.4217 82.082889 C 378.05471 78.4092 387.48622 65.042512 381.94514 67.168826 C 378.43247 68.516764 378.63332 65.517833 382.43928 59.762576 C 387.43619 52.206371 388.42661 49.332889 386.03693 49.332889 C 385.00323 49.332889 383.8024 49.906975 383.36896 50.608279 C 382.93554 51.309584 381.66886 51.532736 380.55256 51.104373 C 378.81536 50.437749 378.89557 49.918851 381.11115 47.496951 C 384.72424 43.547383 389.68165 33.332889 387.98615 33.332889 C 387.21582 33.332889 383.03581 34.828191 378.69514 36.655154 C 371.25234 39.787785 356.75957 42.769021 339.83771 44.649295 C 330.78944 45.654697 329.308 43.788631 333.50764 36.670779 C 335.0231 34.102353 335.75507 32.001964 335.13264 32.004764 C 333.62667 32.011396 325.43654 37.038763 323.05842 39.416873 C 320.21925 42.256048 308.94822 44.99922 293.61311 46.582889 C 277.53496 48.243293 270.83154 51.127093 265.97248 58.469608 C 261.77303 64.815405 260.1174 70.481274 259.82209 79.518436 C 259.69532 83.397606 259.06382 86.245829 258.41779 85.846561 C 257.77179 85.44729 257.5251 86.679798 257.87092 88.586795 C 258.21672 90.493791 258.00628 91.749216 257.40217 91.375858 C 256.79807 91.0025 255.99086 91.891037 255.6092 93.350467 C 255.15919 95.071287 255.43245 95.68427 256.38654 95.094608 C 257.1957 94.594516 256.45019 96.161651 254.73029 98.577029 C 251.3728 103.29219 245.76224 106.24431 239.33381 106.67859 C 230.88618 107.24929 229.63357 106.77887 228.13068 102.46765 C 225.97917 96.295838 226.25797 93.102009 230.65998 73.578983 C 234.37086 57.121208 235.36268 46.087719 232.99982 47.541873 C 232.44982 47.880354 231.99982 47.521609 231.99982 46.744998 C 231.99982 45.968387 233.64918 45.32837 235.66584 45.32117 C 240.16869 45.305174 253.17874 39.40802 253.90998 37.051639 C 256.00984 30.28495 255.90261 28.2856 253.40217 27.631717 C 252.85795 27.489403 252.43097 27.412971 252.10139 27.430545 z M 226.05256 194.92078 C 227.47965 194.94308 229.5311 196.69784 232.56232 200.23914 C 236.98045 205.40073 237.33483 206.46028 237.34553 214.57312 C 237.35371 220.85123 236.52349 225.09528 234.41779 229.55164 C 231.76264 235.17082 230.98236 235.81601 226.32014 236.26062 C 222.77094 236.5991 219.21177 235.76608 214.91389 233.5907 C 207.34334 229.75888 207.71249 230.11001 207.32404 226.37586 C 207.14997 224.70265 206.93131 222.88289 206.83771 222.33289 C 206.74413 221.78289 205.50134 221.33289 204.07795 221.33289 C 202.65456 221.33289 201.15137 220.78405 200.73615 220.11219 C 199.60921 218.28878 213.50685 206.66687 216.81428 206.66687 C 220.37908 206.66687 222.40662 204.29889 223.49201 198.87195 C 224.0204 196.23001 224.79336 194.9011 226.05256 194.92078 z "
       transform="translate(-31.050605,-27.428592)" />
    <g
       id="layer1"
       inkscape:label="01"
       transform="translate(-31.050605,-27.428592)">
      <path
         style="fill:#d45500;stroke-width:1.33333"
         d="m 183.20657,257.89092 c -0.42169,-3.39998 -0.14528,-4.47108 0.97513,-3.77863 0.97747,0.60412 1.207,0.38932 0.61228,-0.57295 C 184.27073,252.6927 184.4592,252 185.2128,252 c 0.7536,0 0.99482,-0.97815 0.53606,-2.17366 -0.65232,-1.69992 -1.35752,-1.19136 -3.2356,2.33334 -2.71388,5.09325 -3.2037,9.17365 -1.10124,9.17365 0.77662,0 0.98391,0.69271 0.46066,1.53935 -0.56524,0.91456 -0.36818,1.1789 0.48553,0.65129 0.79029,-0.48843 1.17205,-3.02331 0.84836,-5.63305 z"
         id="path3266" />
      <path
         style="fill:#0000ff;stroke-width:1.33333"
         d="m 173.03665,276.59106 c 3.69977,-2.59142 3.83492,-7.71949 0.29668,-11.25773 -5.59624,-5.59624 -13.20835,-1.72101 -13.0926,6.66528 0.0403,2.91397 0.48115,5.04595 0.97985,4.73773 0.49871,-0.30821 1.7781,-0.009 2.84308,0.66455 2.82955,1.78999 5.62091,1.53807 8.97299,-0.80983 z"
         id="path3264" />
      <path
         style="fill:#0000ff;stroke-width:1.33333"
         d="m 199.60052,278.44492 c 2.26942,-1.88346 2.18796,-4.36386 -0.30143,-9.1778 -1.73497,-3.35507 -2.81383,-3.93379 -7.33333,-3.93379 -2.91451,0 -5.2991,0.55957 -5.2991,1.24348 0,0.68392 -1.10308,1.59359 -2.45128,2.02149 -3.528,1.11975 -3.13972,10.07724 0.50218,11.58475 3.19285,1.32164 12.50681,0.23389 14.88296,-1.73813 z"
         id="path3262" />
      <path
         style="fill:#0000ff;stroke-width:1.33333"
         d="m 152.33333,280.13377 c -0.18333,-0.80691 0.19672,-1.46711 0.84456,-1.46711 1.74883,0 2.53475,-5.80042 1.25475,-9.26058 -0.68632,-1.8553 -1.85055,-2.73644 -3.02175,-2.287 -1.04791,0.4021 -2.13001,0.0569 -2.40471,-0.7672 -0.27469,-0.82407 -1.36345,-1.16675 -2.41948,-0.76152 -1.05602,0.40524 -2.22004,0.71178 -2.5867,0.68124 -0.36667,-0.0305 -1.95763,0.63536 -3.53547,1.47978 -3.82035,2.04459 -3.40491,8.54206 0.77816,12.17 3.27939,2.8442 11.72535,3.00595 11.09064,0.21239 z"
         id="path3260" />
      <path
         style="fill:#0000ff;stroke-width:1.33333"
         d="m 218.91528,280.65348 c 1.3107,-2.87668 1.08686,-3.81266 -1.59434,-6.66667 -3.54828,-3.77696 -4.96938,-4.00675 -8.45378,-1.36695 -2.16374,1.63926 -2.2737,2.45166 -0.8966,6.62427 1.32666,4.01981 2.17706,4.75587 5.49476,4.75587 2.89709,0 4.32456,-0.87652 5.44996,-3.34652 z"
         id="path3258" />
      <path
         style="fill:#0000ff;stroke-width:1.33333"
         d="m 138.66666,297.25464 c 0,-0.77662 0.6,-1.0412 1.33334,-0.58798 0.78,0.48207 1.33333,-0.90126 1.33333,-3.33333 0,-2.83464 -0.49631,-3.85064 -1.55992,-3.19329 -1.04695,0.64704 -1.28165,0.23893 -0.71373,-1.24106 0.60006,-1.56372 -0.0133,-2.39209 -2.10675,-2.84786 -8.29851,-1.80623 -9.80301,-1.35575 -11.4732,3.43537 -1.50388,4.31405 -0.87773,7.12288 1.28929,5.78357 0.68829,-0.42537 2.18969,0.16484 3.33644,1.31159 2.34946,2.34947 8.5612,2.83776 8.5612,0.67299 z"
         id="path3252" />
      <path
         style="fill:#0000ff;stroke-width:1.33333"
         d="m 181.73136,296.29758 c 1.54496,-1.39245 2.25644,-3.60852 2,-6.22945 -0.35827,-3.66177 -0.86418,-4.07815 -5.0647,-4.16844 -9.11052,-0.19583 -13.3293,5.61285 -8.33333,11.4738 2.62055,3.07425 7.28148,2.63429 11.39803,-1.07591 z"
         id="path3250" />
      <path
         style="fill:#0000ff;stroke-width:1.33333"
         d="m 202.03762,300.06088 c -0.47392,-0.76682 -0.3157,-1.39422 0.35158,-1.39422 1.01442,0 1.27897,-4.5345 0.48616,-8.33333 -0.1148,-0.55 -2.19586,-1 -4.62462,-1 -3.40508,0 -5.12509,0.9592 -7.51396,4.19032 -1.70393,2.30468 -2.45996,3.79597 -1.68008,3.31397 0.77988,-0.48198 1.76443,0.21526 2.18788,1.54943 0.55327,1.74317 2.3014,2.51615 6.21231,2.74691 3.51548,0.20742 5.13732,-0.17251 4.58073,-1.07308 z"
         id="path3248" />
      <path
         style="fill:#0000ff;stroke-width:1.33333"
         d="m 161.2561,299.42638 c 2.07594,-2.50134 1.31432,-12.20713 -0.92277,-11.75972 -0.91667,0.18334 -1.66667,-0.28777 -1.66667,-1.0469 0,-0.95144 -0.80124,-0.95144 -2.57901,0 -1.41845,0.75913 -3.85387,1.38024 -5.41203,1.38024 -1.55814,0 -2.46218,0.6 -2.00896,1.33333 0.45323,0.73333 0.18864,1.33333 -0.58797,1.33333 -0.77661,0 -1.41203,1.70831 -1.41203,3.79626 0,2.61925 0.93012,4.24481 3,5.24309 4.29574,2.07175 9.74714,1.94021 11.58944,-0.27963 z"
         id="path3246" />
      <path
         style="fill:#0000ff;stroke-width:1.33333"
         d="m 219.61976,306.68486 c 2.25328,-0.0253 4.72578,-5.05682 3.46232,-7.04576 -0.5727,-0.9015 -1.05044,-2.21609 -1.06167,-2.92132 -0.0107,-0.70521 -1.61316,-2.17618 -3.55985,-3.26884 -4.5006,-2.52612 -7.34624,-0.52437 -8.5764,6.03298 -1.03459,5.5148 1.3377,9.04145 5.35602,7.96232 1.5179,-0.40764 3.48871,-0.74936 4.37958,-0.75938 z"
         id="path3244" />
      <path
         style="fill:#0000ff;stroke-width:1.33333"
         d="m 185.88858,317.70882 c 0.75631,-1.30652 1.39079,-4.02549 1.40994,-6.04216 0.0307,-3.2252 -0.46686,-3.66666 -4.13186,-3.66666 -2.29166,0 -6.09936,0.38653 -8.46153,0.85897 -3.94532,0.78907 -4.22953,1.18567 -3.49209,4.87292 1.25197,6.25981 3.33292,7.96995 8.6485,7.10733 2.55856,-0.41518 5.27072,-1.82386 6.02704,-3.1304 z"
         id="path3242" />
      <path
         style="fill:#0000ff;stroke-width:1.33333"
         d="m 206.66666,315.23568 c 0,-1.77963 0,-3.68568 0,-4.23568 0,-0.55 -0.45,-1.05182 -1,-1.11516 -0.55,-0.0633 -2.00312,-0.55954 -3.22914,-1.10267 -2.53272,-1.122 -8.21991,1.41255 -7.12928,3.17723 0.39394,0.63742 -0.26068,2.13589 -1.45472,3.32993 -1.19404,1.19404 -1.94955,2.34137 -1.67892,2.54961 5.50084,4.23279 6.69185,4.52367 10.58012,2.58395 2.71625,-1.35505 3.91194,-2.94053 3.91194,-5.18721 z"
         id="path3240" />
      <path
         style="fill:#0000ff;stroke-width:1.33333"
         d="m 164.39521,319.87304 c 0.73193,-1.16984 0.93101,-3.71984 0.44239,-5.66667 -1.18742,-4.73103 -6.98222,-4.80087 -12.29688,-0.14821 l -3.87406,3.39149 3.23079,2.67577 c 3.75951,3.11367 10.47655,2.97803 12.49776,-0.25238 z"
         id="path3238" />
      <path
         style="fill:#0000ff;stroke-width:1.33333"
         d="m 142.49454,320.72758 c 0.14978,-0.76684 0.51272,-4.24425 0.80654,-7.72758 l 0.53421,-6.33334 h -5.17537 c -3.8366,0 -5.7123,0.76656 -7.25098,2.96335 -2.84627,4.06361 -2.61651,5.95029 1.18796,9.75476 3.26226,3.26227 9.36112,4.08969 9.89764,1.34281 z"
         id="path3236" />
      <path
         style="fill:#0000ff;stroke-width:1.33333"
         d="m 219.67356,336.99999 c 2.899,-3.62354 3.26414,-7.82385 0.90664,-10.42887 -2.61964,-2.89467 -9.82196,-3.4627 -12.31354,-0.97112 -2.09193,2.09193 -2.05234,8.66544 0.0667,11.07222 2.07349,2.35508 9.54551,2.57104 11.34023,0.32777 z"
         id="path3234" />
      <path
         style="fill:#0000ff;stroke-width:1.33333"
         d="m 196.93877,340.50895 c 2.48056,-0.66509 2.81512,-1.44182 2.14571,-4.98178 -0.43618,-2.30661 -1.3821,-4.94384 -2.10203,-5.86051 -1.59053,-2.02516 -8.19664,-2.18104 -11.75372,-0.27734 -2.88907,1.54617 -2.23877,3.68901 2.71423,8.94401 2.9753,3.15673 4.21684,3.45698 8.99581,2.17562 z"
         id="path3232" />
      <path
         style="fill:#0000ff;stroke-width:1.33333"
         d="M 150.33333,340.18986 C 151.25,340.08546 152,339.06458 152,337.9213 c 0,-1.14328 0.6,-1.70787 1.33333,-1.25464 0.74351,0.45951 1.32431,-0.53788 1.31292,-2.25464 -0.0164,-2.47685 -0.27308,-2.68772 -1.31292,-1.07869 -1.05557,1.63337 -1.29624,1.47621 -1.31292,-0.85735 -0.0285,-3.98721 -3.25105,-4.79972 -8.71064,-2.19622 -4.78641,2.28248 -5.14889,3.03241 -3.83433,7.93269 0.76002,2.83316 1.7553,3.01442 10.85789,1.97741 z"
         id="path3230" />
      <path
         style="fill:#0000ff;stroke-width:1.33333"
         d="m 172.8874,340.69559 c 2.79336,-1.95653 5.0832,-11.36226 2.76617,-11.36226 -0.62936,0 -0.71703,-0.69132 -0.19481,-1.53627 1.64048,-2.65437 -10.1094,-0.31793 -12.18678,2.42331 -2.48002,3.27259 -2.4118,7.78266 0.15659,10.35105 2.62483,2.62483 5.82861,2.66688 9.45883,0.12413 z"
         id="path3228" />
      <path
         style="fill:#0000ff;stroke-width:1.33333"
         d="m 208.27918,354.16678 c 2.72064,-5.0448 2.1465,-8.84313 -1.47405,-9.75183 -4.93428,-1.23842 -10.05883,2.19434 -10.53885,7.05963 -0.31155,3.15771 0.27586,4.35981 2.64753,5.41808 4.00548,1.78731 7.47621,0.77711 9.36537,-2.72588 z"
         id="path3226" />
      <path
         style="fill:#0000ff;stroke-width:1.33333"
         d="m 185.66666,356.81059 c 3.16667,-2.40384 2.97706,-9.00012 -0.34036,-11.84058 -2.54553,-2.17955 -2.81681,-2.14618 -5.6592,0.69621 -2.71636,2.71636 -4.29856,9.52784 -2.7875,12.00044 0.97298,1.59216 6.2376,1.07927 8.78706,-0.85607 z"
         id="path3224" />
      <path
         style="fill:#0000ff;stroke-width:1.33333"
         d="m 162.71278,358.64198 c 1.80832,-0.96779 2.4877,-2.68259 2.3642,-5.96749 -0.14826,-3.94399 -0.79176,-4.8136 -4.45714,-6.02328 -5.43416,-1.79344 -11.02023,0.49029 -12.14318,4.96442 -1.60908,6.41111 7.23215,10.77476 14.23612,7.02635 z"
         id="path3222" />
      <path
         style="fill:#0000ff;stroke-width:1.33333"
         d="m 193.33333,375.33333 c 0.91292,-1.1 2.48639,-2 3.49659,-2 2.737,0 2.23242,-5.89528 -0.73438,-8.5802 -2.66618,-2.41286 -8.09554,-1.8592 -8.09554,0.82556 0,0.76944 -1.06896,1.11945 -2.37547,0.77778 -3.65775,-0.95652 -2.29447,7.56879 1.50427,9.407 3.90796,1.89106 4.3007,1.86383 6.20453,-0.43014 z"
         id="path3220" />
      <path
         style="fill:#0000ff;stroke-width:1.33333"
         d="m 175.06386,374.22413 c 1.2115,-1.84896 1.59387,-3.82658 0.94338,-4.8791 -0.60162,-0.97342 -0.7452,-2.67845 -0.31907,-3.78893 0.56349,-1.46847 0.16625,-1.78555 -1.45669,-1.16276 C 173.00416,364.8643 172,364.66846 172,363.95815 c 0,-3.25252 -7.93932,0.74235 -8.47235,4.26307 -0.14812,0.97832 -0.79411,2.6198 -1.43552,3.64771 -1.527,2.44714 2.52737,5.4644 7.34269,5.4644 2.29091,0 4.32967,-1.12611 5.62904,-3.1092 z"
         id="path3218" />
      <path
         style="fill:#0000ff;stroke-width:1.33333"
         d="m 184.22834,393.79334 c 3.188,-2.88511 3.07556,-4.63697 -0.56992,-8.87948 -4.44612,-5.17428 -8.99176,-3.67033 -8.99176,2.97497 0,7.67235 4.52239,10.465 9.56168,5.90451 z"
         id="path3216" />
    </g>
    <g
       id="layer5"
       inkscape:label="02"
       style="fill:#008080">
      <path
         style="fill:#008080;stroke-width:1.33333"
         d="M 171.7016,215.77777 C 171.63213,213.33469 170.8786,212 169.56874,212 c -1.11398,0 -3.04368,-0.92151 -4.28821,-2.04778 -4.99968,-4.52465 -24.83965,-15.45441 -28.71291,-15.81782 -0.7878,-0.0739 -3.41725,-2.2344 -5.84322,-4.80107 -2.42598,-2.56667 -3.99601,-3.91667 -3.48895,-3 0.50706,0.91667 0.28652,1.66667 -0.4901,1.66667 -0.77661,0 -1.41202,-0.93542 -1.41202,-2.0787 0,-1.14328 -0.54875,-1.73953 -1.21945,-1.32502 -0.6707,0.41452 -1.4207,0.29237 -1.66667,-0.27142 -0.45004,-1.03158 -14.01059,-10.99153 -14.96504,-10.99153 -0.76944,0 -4.8155,8.85156 -4.8155,10.53484 0,0.80584 1.17018,1.46516 2.60041,1.46516 1.43022,0 3.08022,0.79285 3.66666,1.76191 0.58644,0.96904 3.89932,3.11437 7.36194,4.76738 3.46263,1.65302 8.56263,4.55078 11.33334,6.43948 2.7707,1.8887 8.33764,5.01462 12.37098,6.94648 4.03333,1.93187 10.32452,5.29126 13.98041,7.46528 6.57904,3.91235 13.21893,6.6848 16.25743,6.78822 0.87298,0.0297 1.52344,-1.62526 1.46376,-3.72431 z"
         id="path3284"
         transform="translate(-31.050605,-27.428592)" />
      <path
         style="fill:#008080;stroke-width:1.33333"
         d="m 212,243.90637 c 0,-0.7684 0.70196,-0.96325 1.55992,-0.433 1.05834,0.65409 1.27761,0.2284 0.68193,-1.32389 -0.48288,-1.25839 -0.4062,-1.99642 0.17041,-1.64004 0.57662,0.35636 1.91975,0.0967 2.98474,-0.577 1.60625,-1.01614 1.53858,-1.22842 -0.397,-1.24536 -1.28334,-0.0107 -2.33334,-0.65583 -2.33334,-1.43244 0,-0.77662 -0.6927,-0.98391 -1.53934,-0.46066 -0.89372,0.55236 -1.17963,0.36934 -0.68167,-0.43638 0.69131,-1.11855 -3.42099,-3.202 -5.65913,-2.86715 -0.30074,0.0449 -1.09527,-0.89824 -1.76562,-2.09609 -0.75241,-1.34448 -2.15848,-1.87968 -3.67432,-1.39856 -1.35053,0.42864 -2.8987,0.0623 -3.44038,-0.81424 -0.66366,-1.07383 -0.41563,-1.24176 0.76046,-0.5149 1.12115,0.69291 1.4226,0.55646 0.84288,-0.38154 -1.05082,-1.70027 -8.85988,2.19993 -8.7728,4.38154 0.0293,0.73334 1.45739,2.49231 3.17358,3.90883 3.09136,2.55157 3.09581,2.59535 0.47956,4.71387 -2.50759,2.0305 -2.3596,2.11156 2.9336,1.60677 3.0659,-0.29239 6.11052,0.004 6.76578,0.6598 1.72439,1.72439 7.91074,1.99843 7.91074,0.35044 z"
         id="path3270"
         transform="translate(-31.050605,-27.428592)" />
      <path
         style="fill:#008080;stroke-width:1.33333"
         d="M 301.08192,285.28138 C 304.15754,282.41601 304.89166,280 302.68669,280 c -0.72231,0 -4.17231,-1.72424 -7.66667,-3.83164 -3.49434,-2.10742 -8.0802,-4.23812 -10.19078,-4.73494 -2.11058,-0.4968 -7.01962,-2.9389 -10.90896,-5.42689 C 265.49366,260.61609 255.66536,256 252.61498,256 c -1.20888,0 -2.51001,-1.19326 -2.8914,-2.65167 -0.38138,-1.45843 -1.17106,-2.35648 -1.75485,-1.99568 -1.48116,0.91541 -5.42293,-0.74505 -4.66809,-1.96643 0.34026,-0.55056 -0.88698,-0.71318 -2.72719,-0.36141 -2.99661,0.57284 -3.31576,1.22089 -3.05759,6.20859 0.27436,5.30002 0.4701,5.5423 4.05287,5.01646 2.07053,-0.30389 3.7646,0.0417 3.7646,0.76795 0,0.72625 2.87244,2.55616 6.3832,4.06645 3.51076,1.51028 7.50376,3.98418 8.87332,5.49752 1.36956,1.51335 3.22365,2.75155 4.1202,2.75155 0.89656,0 2.37155,0.8934 3.27776,1.98532 0.90623,1.09192 2.13823,1.68213 2.7378,1.31159 0.59957,-0.37056 1.47304,-0.0541 1.94105,0.70309 0.46802,0.75725 1.40947,1.03164 2.09214,0.60972 0.68265,-0.42191 1.2412,-0.0963 1.2412,0.72361 0,0.8199 0.56365,1.14236 1.25256,0.71659 0.68892,-0.42577 5.03892,1.31079 9.66666,3.85903 9.9673,5.48841 10.39431,5.54989 14.1627,2.0391 z"
         id="path3256"
         transform="translate(-31.050605,-27.428592)" />
      <path
         style="fill:#008080;stroke-width:1.33333"
         d="m 311.98056,290.02069 c 2.3713,-2.52415 2.82334,-3.93817 1.89909,-5.94056 -1.14924,-2.4898 -1.47576,-2.39267 -6.21299,1.84831 -2.75,2.46192 -5,4.79117 -5,5.17612 0,0.59006 2.1592,1.41417 5.43426,2.0741 0.42216,0.0851 2.16801,-1.33602 3.87964,-3.15797 z"
         id="path3254"
         transform="translate(-31.050605,-27.428592)" />
      <path
         style="fill:#008080;stroke-width:1.33333"
         d="m 227.65724,253.01681 c 0.16944,-2.24947 -0.0671,-2.51108 -0.96162,-1.06367 -0.65249,1.05575 -0.89052,2.39818 -0.52896,2.98319 1.00583,1.62748 1.24676,1.31723 1.49058,-1.91952 z"
         id="path3268"
         transform="translate(-31.050605,-27.428592)" />
    </g>
    <g
       id="layer3"
       inkscape:label="03"
       style="fill:#ffcc00">
      <path
         style="fill:#ffcc00;stroke-width:1.33333"
         d="m 208.85725,83.759661 c 4.23008,-0.955738 6.69836,-0.757356 10.53805,0.846971 2.75778,1.152271 5.21943,1.889749 5.47034,1.638843 C 225.6051,85.506007 232,55.824133 232,53.131365 c 0,-6.58624 -10.7365,-10.084459 -18.65486,-6.07822 -5.72953,2.898812 -4.5747,10.280187 1.60834,10.280187 2.1763,0 1.63134,1.107372 -3.17655,6.454915 -4.93516,5.489073 -13.11027,19.37618 -13.11027,22.27047 0,0.491288 1.05,0.455798 2.33334,-0.07887 1.28333,-0.534667 4.81909,-1.533751 7.85725,-2.22019 z"
         id="path3298"
         transform="translate(-31.050605,-27.428592)" />
      <path
         style="fill:#ffcc00;stroke-width:1.33333"
         d="m 245.96573,219.52326 c 2.2906,-1.67492 2.33319,-2.24736 0.5704,-7.66666 -2.018,-6.20396 -1.43769,-16.15504 1.08948,-18.68222 2.4304,-2.4304 6.83799,0.05 11.10225,6.2479 2.2368,3.25108 4.63808,5.91105 5.33619,5.91105 1.78284,0 1.62583,-0.74068 -1.42448,-6.71979 -3.19879,-6.27012 -1.77707,-6.964 2.02709,-0.98934 1.46667,2.30348 3.41667,4.43037 4.33334,4.72641 2.55037,0.82368 1.98556,-3.51988 -1.10875,-8.52657 -1.52648,-2.46988 -2.27648,-4.48608 -1.66667,-4.48044 0.60982,0.005 2.47667,2.40565 4.14856,5.33333 3.30128,5.78092 6.4158,7.26763 4.86663,2.32307 -0.51696,-1.65 -2.0658,-4.4416 -3.44187,-6.20355 -1.37605,-1.76196 -2.14852,-3.55696 -1.71657,-3.98889 0.43193,-0.43195 1.31643,0.16366 1.96555,1.32356 2.59658,4.63985 6.4509,8.47508 7.48325,7.4462 0.60116,-0.59915 -0.2472,-3.41802 -1.88523,-6.26416 -4.20086,-7.29916 -3.69717,-8.03906 1.03012,-1.51322 4.07498,5.62532 6.65831,7.04519 6.65831,3.65954 0,-2.86339 -8.09995,-12.25508 -21.40625,-24.82006 -13.07794,-12.3493 -16.54615,-18.49848 -14.48562,-25.68314 0.82167,-2.86499 0.59172,-4.4469 -0.85698,-5.89562 -1.08899,-1.08898 -2.87511,-3.71096 -3.96916,-5.82662 -1.09404,-2.11565 -3.18099,-5.20881 -4.63763,-6.87368 -12.90217,-14.74643 -14.10389,-15.80289 -18.83201,-16.55573 -5.79552,-0.92279 -9.0295,1.78121 -18.90296,15.80522 -3.463,4.91875 -7.6178,9.86875 -9.23288,11 -3.49699,2.44937 -10.49959,2.7004 -12.74318,0.45681 -2.5197,-2.5197 -2.02845,4.4438 0.84744,12.01255 5.1465,13.54447 17.22788,26.35657 37.18619,39.43535 5.29849,3.47213 12.34849,9.41646 15.66667,13.20964 5.8202,6.65336 6.6226,8.93044 6.077,17.24564 -0.40779,6.21493 1.56988,7.73561 5.92177,4.55342 z"
         id="path3282"
         transform="translate(-31.050605,-27.428592)" />
      <path
         style="fill:#ffcc00;stroke-width:1.33333"
         d="m 366.66666,83.999999 c 0,-0.789022 -4.84472,-1.333334 -11.86751,-1.333334 -6.52712,0 -18.97712,-1.246501 -27.66666,-2.770002 -21.32777,-3.739313 -26.96884,-4.382817 -24.46583,-2.790943 1.99878,1.271192 31.92444,6.498124 42,7.335883 12.25161,1.018692 22,0.823013 22,-0.441604 z"
         id="path3302"
         transform="translate(-31.050605,-27.428592)" />
      <path
         style="fill:#ffcc00;stroke-width:1.33333"
         d="m 262.12116,134.74172 -6.02411,-10.89078 4.77373,0.75866 c 2.62555,0.41727 5.29416,1.08032 5.93026,1.47345 0.6361,0.39313 0.9968,-2.01473 0.80154,-5.3508 -0.20585,-3.51722 0.2232,-6.05896 1.02122,-6.04981 0.7569,0.009 8.42961,6.90867 17.05045,15.33333 10.9588,10.70941 16.57449,15.28589 18.66667,15.21229 1.98066,-0.0697 2.31621,-0.35706 0.99241,-0.85 -4.69416,-1.74798 -30.56232,-25.98897 -30.63864,-28.7114 -0.0154,-0.55 0.87197,-1 1.97197,-1 1.11111,0 2,-1.18518 2,-2.66666 0,-1.46667 0.3522,-2.66667 0.78268,-2.66667 0.43047,0 5.26742,3.84192 10.74875,8.5376 13.71407,11.74837 25.8019,19.92779 25.8019,17.45923 0,-1.07015 -2.66538,-3.30722 -5.92309,-4.97127 C 304.11766,127.31487 278.83468,106.8646 278.72532,105 c -0.0323,-0.55 2.36709,-1 5.33189,-1 4.16357,0 6.97081,1.16881 12.33333,5.13506 9.54327,7.05843 20.59277,13.09608 29.70403,16.23081 8.72934,3.00333 9.90542,3.15778 9.90542,1.30079 0,-0.73333 -0.45,-1.21562 -1,-1.07176 -2.72,0.71145 -16.77345,-4.8405 -25.66666,-10.13987 -13.25145,-7.8964 -16.88792,-11.25569 -17.8238,-16.46527 -0.76027,-4.232101 -0.70411,-4.293953 2.18841,-2.41012 4.02843,2.623609 30.61456,13.9036 38.1874,16.20218 3.36305,1.02079 8.21465,1.83297 10.78132,1.80486 3.3668,-0.0369 1.32416,-0.92769 -7.33333,-3.19808 -12.43395,-3.26075 -37.54969,-13.792041 -42.86681,-17.974488 l -3.03999,-2.391251 7.04197,-0.827645 c 5.11834,-0.60156 9.74946,-0.07175 16.9534,1.939527 21.68904,6.055369 45.24476,9.521067 45.24476,6.656749 0,-0.66468 -1.16335,-0.904287 -2.58521,-0.53246 -3.74792,0.980103 -19.85616,-1.834532 -36.88035,-6.444196 -14.06589,-3.808641 -14.90792,-4.235744 -17,-8.622881 C 300.99049,80.653287 300,78.050074 300,77.407038 c 0,-0.643035 2.772,-2.51106 6.16001,-4.151167 5.85151,-2.832668 6.97,-2.92022 22.33333,-1.748199 19.39095,1.479276 47.50665,-0.596974 47.50665,-3.508208 0,-0.540512 -4.94353,-0.07171 -10.98564,1.041795 -9.05054,1.667928 -14.71633,1.792477 -32.16509,0.707076 -20.05658,-1.24762 -21.3105,-1.487941 -23.65138,-4.532901 -1.35955,-1.76849 -2.48507,-3.515435 -2.50112,-3.882102 -0.016,-0.366666 4.02058,-0.649389 8.97034,-0.62827 26.83975,0.114508 58.99956,-4.287194 58.99956,-8.075247 0,-1.064505 -2.29457,-0.774626 -7.33328,0.926435 -4.15135,1.401485 -14.70968,3.039154 -24.33333,3.774268 -32.67367,2.495813 -37.26869,2.323146 -27.94063,-1.049926 2.41603,-0.873643 6.46603,-3.800773 9,-6.504731 l 4.60724,-4.916287 -6.85728,4.912335 c -7.63905,5.47238 -16.81874,9.191206 -19.83286,8.034579 -3.07696,-1.180738 -2.37166,0.198374 2.69014,5.260178 2.56667,2.566666 4.66667,5.341517 4.66667,6.166334 0,2.046975 -5.80017,4.091355 -11.75347,4.142736 -4.14209,0.03575 -4.57914,0.297326 -2.78477,1.666667 2.80511,2.140645 6.84695,10.046068 5.91077,11.560837 -1.26425,2.045595 -8.07872,2.902529 -11.80757,1.484825 -3.55845,-1.352925 -4.66188,-0.418076 -2.33539,1.9786 0.67628,0.696667 1.65827,3.597764 2.1822,6.446883 l 0.95262,5.180212 -7.35448,-0.60989 -7.3545,-0.60989 1.1723,4.08754 c 2.58448,9.01157 -0.18411,11.17719 -8.64679,6.7636 -4.61497,-2.40688 -5.93255,-2.54341 -3.78092,-0.39179 0.88,0.88 1.6,3.88 1.6,6.66667 0,4.2187 -0.45739,5.06666 -2.73288,5.06666 -1.50308,0 -4.50308,-0.9154 -6.66667,-2.03424 L 252,118.59818 v 4.70091 c 0,3.98008 -0.46002,4.70404 -3,4.72133 -2.42592,0.0165 -2.61728,0.26775 -1,1.31291 3.24118,2.09462 5.1181,1.53505 5.59042,-1.66667 0.37407,-2.53572 1.03767,-1.96828 4.28798,3.66667 10.15282,17.60164 13.64566,20.40759 4.24276,3.40839 z"
         id="path3296"
         transform="translate(-31.050605,-27.428592)" />
      <path
         style="fill:#ffcc00;stroke-width:1.33333"
         d="m 281.44125,142.57721 c -13.915,-15.8711 -15.19172,-16.68274 -4.84301,-3.07881 3.79558,4.9895 9.01048,10.00398 9.6935,9.32096 0.18238,-0.18238 -2.00034,-2.99134 -4.85049,-6.24215 z"
         id="path3294"
         transform="translate(-31.050605,-27.428592)" />
      <path
         style="fill:#ffcc00;stroke-width:1.33333"
         d="m 258.73386,144.96296 -3.118,-2.96296 2.5254,3.53608 c 1.38898,1.94484 2.79207,3.27817 3.11799,2.96296 0.32593,-0.31522 -0.81049,-1.90646 -2.52539,-3.53608 z"
         id="path3292"
         transform="translate(-31.050605,-27.428592)" />
      <path
         style="fill:#ffcc00;stroke-width:1.33333"
         d="m 174.97644,143.51149 c 2.75245,-7.36224 1.02802,-8.35272 -2.0512,-1.17816 -1.18026,2.75 -3.22128,6.5 -4.53559,8.33333 L 166,154 l 3.33333,-2.15518 c 1.83333,-1.18533 4.37273,-4.93533 5.64311,-8.33333 z"
         id="path3290"
         transform="translate(-31.050605,-27.428592)" />
      <path
         style="fill:#ffcc00;stroke-width:1.33333"
         d="M 165.90158,136.15597 C 170.12017,129.47019 174.1181,124 174.78586,124 c 0.66778,0 1.22731,-2.25 1.24342,-5 0.0161,-2.75 1.19746,-7.57389 2.62525,-10.71976 1.42777,-3.14586 1.95337,-5.32262 1.168,-4.83723 -2.28721,1.41358 -5.15587,9.40969 -5.15587,14.37151 0,4.82265 -2.58726,7.06488 -5.17085,4.48128 C 168.6731,121.47311 168,119.3558 168,117.59068 c 0,-2.53446 -0.49066,-3.00682 -2.33334,-2.24633 -1.28333,0.52964 -4.33973,1.44337 -6.792,2.03051 l -4.45868,1.06751 0.46267,-5.8172 0.46265,-5.81721 -5.85785,0.80291 -5.85785,0.80291 0.93204,-4.96824 c 0.51262,-2.73254 1.26106,-5.825636 1.66318,-6.87356 0.57132,-1.488833 -0.68444,-1.909777 -5.74484,-1.925732 -9.77371,-0.03081 -11.05845,-1.423509 -6.64768,-7.206324 l 3.64074,-4.773259 h -3.90119 c -6.08652,0 -12.23452,-1.528045 -12.23452,-3.040812 0,-0.75578 1.53054,-3.380779 3.40119,-5.833333 l 3.40119,-4.459188 h -3.31439 c -1.82291,0 -4.89751,-0.601901 -6.83243,-1.337558 l -3.51805,-1.337559 3.09791,-3.922003 c 1.70385,-2.157101 3.84791,-3.9552 4.76458,-3.995774 C 123.25,58.699863 124,58.031255 124,57.254643 c 0,-0.776612 -0.52821,-1.085575 -1.17379,-0.686581 -1.59836,0.987842 -17.12953,-4.180632 -22.56301,-7.508536 -2.421907,-1.483372 -4.682608,-2.417899 -5.02378,-2.076725 -0.929947,0.929945 14.76776,9.017198 17.50277,9.017198 1.30291,0 2.00275,0.366173 1.5552,0.813717 -2.14848,2.148482 -59.497907,-0.35723 -68.297391,-2.98405 -1.835593,-0.547961 -2.25113,-0.360237 -1.333333,0.602348 2.071539,2.17263 22.799358,4.463389 48.776507,5.390592 l 23.647777,0.84406 -3.19417,4 -3.19416,4 H 87.68464 c -12.659885,0 -26.617974,-0.444519 -31.017974,-0.98782 -4.985243,-0.615567 -7.232765,-0.527702 -5.964055,0.23316 3.725437,2.234189 34.653756,3.925412 49.705199,2.71798 7.9243,-0.635688 15.2743,-0.887491 16.33334,-0.559559 6.25862,1.937991 6.25045,1.931481 4.72772,3.766264 -4.16056,5.013166 -55.525284,9.779881 -67.714672,6.28401 -3.106141,-0.890829 -4.400953,-0.762436 -4.879187,0.48382 -1.449369,3.776995 31.300225,3.375719 59.002989,-0.722956 8.63629,-1.277754 10.02738,-1.194561 11.06626,0.661816 0.65353,1.167807 2.35843,2.123284 3.78866,2.123284 1.43023,0 2.60041,0.497986 2.60041,1.106635 0,1.419111 -19.48868,5.115247 -36.666665,6.954037 -20.211413,2.163499 -25.560983,2.99857 -23.008167,3.591583 4.965106,1.153383 46.039582,-4.429881 61.341502,-8.338168 4.591,-1.172593 4.82924,0.977884 0.57918,5.227948 -3.77501,3.775009 -38.347399,12.60126 -53.994375,13.78464 -5.590063,0.42277 -9.073467,1.15113 -7.740898,1.61857 5.328835,1.86926 29.498962,-2.41707 52.206343,-9.258266 5.86409,-1.766709 10.48069,-2.230259 17,-1.706951 4.92236,0.39512 8.93827,1.086254 8.92425,1.535852 -0.0432,1.38295 -41.34909,15.878855 -52.307835,18.356915 -5.683333,1.28514 -10.333333,2.81451 -10.333333,3.39858 0,1.44225 0.152957,1.42197 11.777849,-1.56153 10.503229,-2.69563 39.975909,-13.05708 45.404949,-15.96262 3.8068,-2.037331 3.91376,-1.886159 3.12899,4.42216 l -0.64308,5.16939 -17.62203,8.474 c -9.69211,4.6607 -19.92346,8.95217 -22.73634,9.5366 -5.162833,1.07268 -8.122878,4.31729 -3.938645,4.31729 2.808311,0 16.688945,-6.26163 36.176505,-16.31943 17.09765,-8.82433 20.43297,-9.51655 19.38276,-4.02271 -0.82293,4.30489 -6.49711,9.79678 -20.30734,19.65494 -5.52367,3.94296 -11.22367,8.53163 -12.66667,10.19703 -3.93087,4.53674 18.99756,-11.857 27.03682,-19.33123 3.38963,-3.15139 5.60108,-4.04693 10.20728,-4.13351 l 5.88018,-0.11052 -3.72855,4.69939 c -2.05071,2.58465 -7.65828,8.86443 -12.46128,13.95506 -4.80301,5.09061 -8.44507,9.72114 -8.09345,10.29006 0.35161,0.56894 3.7026,-2.39612 7.44662,-6.589 3.74403,-4.19288 8.68098,-9.72341 10.97099,-12.29008 2.29003,-2.56666 5.50335,-6.39758 7.14072,-8.51314 2.09868,-2.71159 2.97705,-3.19799 2.97705,-1.64858 0,1.20885 0.69143,3.30507 1.53652,4.65826 1.28718,2.06109 0.42252,4.30463 -5.32816,13.82517 -3.77556,6.25064 -8.38612,12.3617 -10.24566,13.58013 -1.85955,1.21841 -2.99147,2.84559 -2.51539,3.61591 1.26349,2.04437 6.95116,-4.69076 15.78761,-18.69511 z"
         id="path3288"
         transform="translate(-31.050605,-27.428592)" />
      <path
         style="fill:#ffcc00;stroke-width:1.33333"
         d="m 219.94756,198.79325 c 2.2984,-5.5488 1.30144,-9.22669 -3.2809,-12.10365 l -4,-2.51135 0.10574,8.2442 c 0.13366,10.41925 0.0813,10.24421 3.0658,10.24421 1.50796,0 3.14346,-1.54161 4.10932,-3.87341 z"
         id="path3286"
         transform="translate(-31.050605,-27.428592)" />
      <path
         style="fill:#ffcc00;stroke-width:1.33333"
         d="m 307.15188,221 c -2.22086,-2.38334 -5.18855,-5.87106 -6.5949,-7.75048 C 295.4161,206.37928 284,194.17354 284,195.54733 c 0,0.77715 1.95,3.52195 4.33333,6.09956 2.38333,2.57761 7.78603,8.96155 12.006,14.18651 4.21996,5.22496 8.38765,9.49993 9.26155,9.49993 0.87389,0 -0.22816,-1.95 -2.449,-4.33333 z"
         id="path3280"
         transform="translate(-31.050605,-27.428592)" />
      <path
         style="fill:#ffcc00;stroke-width:1.33333"
         d="m 299.7424,225.65276 c -1.8681,-2.00902 -6.92435,-8.43374 -11.23614,-14.27715 -10.25714,-13.90068 -11.82873,-15.74949 -9.71841,-11.43273 3.93192,8.04297 22.33615,31.37756 23.68441,30.0293 0.36667,-0.36666 -0.86177,-2.31041 -2.72986,-4.31942 z"
         id="path3278"
         transform="translate(-31.050605,-27.428592)" />
      <path
         style="fill:#ffcc00;stroke-width:1.33333"
         d="m 290.86133,228.33333 c -1.40351,-2.01667 -5.908,-8.91667 -10.01,-15.33333 -4.102,-6.41667 -7.80705,-11.66667 -8.23345,-11.66667 -0.42639,0 -0.33078,0.75 0.21249,1.66667 1.32304,2.23238 13.63096,22.22081 16.00957,26 1.03851,1.65 2.49232,3 3.23071,3 0.73839,0 0.19419,-1.65 -1.20932,-3.66667 z"
         id="path3276"
         transform="translate(-31.050605,-27.428592)" />
      <path
         style="fill:#ffcc00;stroke-width:1.33333"
         d="m 276.70225,220.20832 c -3.31957,-6.00134 -6.03559,-11.42984 -6.03559,-12.06334 0,-0.63349 -0.9717,-1.95824 -2.15933,-2.94389 -1.18764,-0.98564 1.30307,5.09089 5.53491,13.50341 4.23182,8.41252 7.91954,14.64746 8.1949,13.85542 0.27538,-0.79204 -2.21533,-6.35027 -5.53489,-12.3516 z"
         id="path3274"
         transform="translate(-31.050605,-27.428592)" />
    </g>
    <path
       style="fill:#ff00ff;stroke-width:1.33333"
       d="m 213.97382,51.957647 c -0.51781,-0.837833 -0.31408,-2.150724 0.45272,-2.917534 1.79187,-1.791866 5.96952,-0.228914 5.24051,1.960588 -0.74213,2.228914 -4.51516,2.863104 -5.69323,0.956946 z"
       id="path3300"
       transform="translate(-31.050605,-27.428592)" />
  </g>
</svg>
