<?xml version="1.0" encoding="UTF-8" standalone="no"?>
<!-- Created with Inkscape (http://www.inkscape.org/) -->

<svg
   version="1.1"
   id="svg1"
   width="409.60001"
   height="409.60001"
   viewBox="0 0 409.60001 409.60001"
   sodipodi:docname="45.svg"
   inkscape:version="1.3.2 (091e20ef0f, 2023-11-25)"
   xmlns:inkscape="http://www.inkscape.org/namespaces/inkscape"
   xmlns:sodipodi="http://sodipodi.sourceforge.net/DTD/sodipodi-0.dtd"
   xmlns="http://www.w3.org/2000/svg"
   xmlns:svg="http://www.w3.org/2000/svg">
  <defs
     id="defs1" />
  <sodipodi:namedview
     id="namedview1"
     pagecolor="#ffffff"
     bordercolor="#000000"
     borderopacity="0.25"
     inkscape:showpageshadow="2"
     inkscape:pageopacity="0.0"
     inkscape:pagecheckerboard="0"
     inkscape:deskcolor="#d1d1d1"
     showgrid="false"
     inkscape:zoom="1.1501342"
     inkscape:cx="201.71559"
     inkscape:cy="256.92654"
     inkscape:window-width="1920"
     inkscape:window-height="1011"
     inkscape:window-x="0"
     inkscape:window-y="0"
     inkscape:window-maximized="1"
     inkscape:current-layer="layer1" />
  <g
     inkscape:groupmode="layer"
     id="layer1"
     inkscape:label="Layer 1"
     style="display:inline">
    <path
       style="fill:#ff6600"
       d="m 182.08,337.28101 c -3.26025,-0.3104 -6.14626,-1.02563 -8.96,-2.22053 l -2.08,-0.88332 -11.68,-0.19096 c -18.73949,-0.30639 -22.55609,-0.60289 -34.08,-2.64762 -5.456,-0.96808 -11,-1.99709 -12.32,-2.28669 -1.86424,-0.40901 -5.1145,-0.5763 -14.559999,-0.74937 -11.461611,-0.21002 -12.380544,-0.27085 -16,-1.05907 -4.156261,-0.90512 -6.934085,-2.11343 -7.924141,-3.44689 -0.344429,-0.46389 -0.698949,-1.48857 -0.787823,-2.27706 l -0.161589,-1.43361 -2.568464,-0.2142 c -2.802204,-0.2337 -7.07162,-1.50191 -8.668579,-2.57496 -1.410751,-0.94793 -1.849186,-2.73468 -0.967497,-3.94282 1.329908,-1.82233 4.444354,-3.52486 9.183961,-5.02046 2.493773,-0.78692 5.162004,-1.58969 5.929403,-1.78394 l 1.395271,-0.35317 -0.675271,-0.71879 c -1.462561,-1.55683 -0.426212,-2.65343 3.998369,-4.23084 1.741498,-0.62087 3.31036,-1.27299 3.48636,-1.44917 0.213413,-0.21363 -0.02809,-0.63296 -0.725048,-1.25893 C 83.340176,298.02238 82.945273,297.6 83.03739,297.6 c 0.09212,0 -0.950664,-1.404 -2.31729,-3.12 -12.159586,-15.26814 -19.855721,-32.68113 -23.088861,-52.24 -2.11037,-12.76667 -2.114701,-29.75432 -0.01125,-44.14178 2.279503,-15.59167 6.576163,-29.52926 13.569878,-44.01822 6.266798,-12.98299 11.85689,-21.17094 19.712126,-28.87286 5.824947,-5.71125 12.204187,-10.29111 19.453187,-13.96609 7.53478,-3.81985 18.61309,-6.60577 28.36483,-7.13304 3.12945,-0.16921 3.91053,-0.34149 7.03999,-1.55282 1.93601,-0.74938 4.528,-1.65874 5.76,-2.02081 5.81182,-1.708029 6.33993,-1.772636 15.99796,-1.957138 l 9.27795,-0.177241 0.38712,-2.08 c 0.54495,-2.928135 0.51028,-9.357423 -0.0668,-12.399884 -1.03779,-5.470778 -2.98879,-9.750009 -7.57319,-16.610704 l -2.95841,-4.427376 -0.0123,-2.241018 c -0.0166,-3.021566 0.90737,-4.591862 4.12776,-7.015611 6.13242,-4.615391 14.00763,-8.254392 18.79603,-8.685323 5.03687,-0.453292 7.39021,1.200262 12.51331,8.792367 2.0289,3.006704 6.27093,11.020491 7.97587,15.067549 3.94489,9.364061 5.07593,11.880001 7.6896,17.105188 1.73738,3.47331 3.52456,6.550675 4.51947,7.782125 l 1.64568,2.036936 1.92,-0.195449 c 9.41539,-0.958452 12.11959,-1.11603 19.2,-1.118808 11.36257,-0.0045 18.50083,0.813877 27.84,3.191603 20.85655,5.310014 38.01535,16.940054 51.74456,35.071854 18.02569,23.80608 28.41865,56.0334 28.41467,88.11052 -0.002,16.14516 -2.60453,33.43081 -6.89205,45.77611 -4.51041,12.98713 -11.30961,24.08267 -20.71907,33.81126 l -2.52568,2.61134 1.70879,0.33547 c 0.93983,0.18451 3.72006,0.72813 6.17829,1.20805 4.00164,0.78124 4.58784,0.98137 5.6,1.91187 l 1.1305,1.03929 -0.61081,1.14209 c -0.73303,1.37063 -2.14654,2.49834 -3.81866,3.04655 -1.93282,0.63368 -0.9933,1.01988 3.20288,1.31655 8.08711,0.57178 17.93411,2.48642 20.12483,3.91306 1.48238,0.96536 2.26593,2.44496 1.77779,3.35707 -0.88559,1.65474 -4.81673,3.03123 -13.80694,4.83453 -4.52573,0.9078 -6.77283,1.23946 -13.2691,1.95848 -1.76,0.1948 -3.848,0.4797 -4.64,0.6331 -0.792,0.1534 -3.384,0.37043 -5.76,0.48229 -18.36636,0.86463 -21.34561,1.07051 -22.88,1.58113 -2.68869,0.89474 -8.10877,2.11198 -12.32,2.76681 -3.15912,0.49123 -7.02713,0.69333 -18.4,0.96139 -12.74436,0.30038 -14.61869,0.41012 -16.30213,0.9545 -3.54586,1.14663 -16.79043,0.73961 -19.21845,-0.5906 -0.35168,-0.19267 -1.61738,-0.80711 -2.81266,-1.36541 l -2.17325,-1.01511 -3.26675,0.53847 c -3.37256,0.55591 -10.86844,2.0952 -17.02676,3.49648 -6.46935,1.47205 -18.30283,2.3499 -24.16,1.79227 z"
       id="path5" />
    <path
       style="fill:#803300"
       d="m 170.16946,56.903729 -0.44201,4.907487 6.51991,12.92376 4.33921,20.67571 6.45679,3.06072 12.10711,-0.490215 16.27078,-1.618504 -1.41254,-11.156197 -4.34623,-14.179701 -8.08783,-14.37998 -6.88641,-9.15284 -6.89897,-0.729349 -8.86048,4.628926 z"
       id="path4" />
    <path
       id="path3"
       style="display:inline;fill:#ffcc00"
       d="m 250.33984,140.35352 -7.25195,3.13867 -3.17187,4.65234 4.59765,2.41992 20.64844,4.12696 9.64844,10.48828 4.0625,5.29492 1.57812,3.35351 3.66016,1.36133 -1.80664,-8.88867 -7.28125,-15.7793 -13.62696,-8.35546 z m -97.00195,12.76171 -5.22461,0.16602 -7.08008,0.83789 -8.46484,5.70703 -9.63867,9.21289 -2.71875,10.82813 0.66601,10.26758 2.02344,2.625 2.4043,-9.26954 3.625,-11.15429 15.80664,-10.79688 14.08008,-2.29297 -1.90821,-4.19336 z m 39.71875,25.92383 -2.88476,1.85547 -3.72852,6.37305 -2.63281,6.9707 -2.55664,7.98633 0.15234,4.25 6.78711,1.3125 5.7793,0.25195 2.58007,-6.72656 3.67579,-14.55859 z m 98.98047,34.37305 -10.75,5.03125 -30.50781,27.80859 -32.09375,12.47657 -8.01563,-4.1543 -12.94726,0.29492 -6.0293,0.92969 -0.30859,6.20312 6.73828,-1.36133 7.73633,-0.18945 2.2539,1.26758 3.25,5.14063 1.89844,3.15234 9.47266,-1.41992 18.26953,-5.98633 13.26562,-6.4043 10.55664,-7.1875 10.71485,-10.52539 9.23828,-10.96094 z m -180.09766,7.78711 3.52149,9.2168 8.48828,12.15234 8.23047,7.66797 9.76172,9.23242 13.57031,7.26367 9.5957,4.17188 10.72852,2.01758 10.87695,0.42187 1.81641,-0.72266 -0.84961,-9.87109 -9.89649,-0.34766 -25,-10.92578 -25.46484,-19.79297 -5.98047,-5.4082 z m 66.04102,12.1289 0.58008,8.16797 9.25586,-0.37695 -0.26368,-7.38672 z" />
    <path
       id="path2"
       style="display:inline;fill:#00ff00;stroke-width:1.13666"
       d="m 256.25,155.86133 a 10.823051,9.6048222 0 0 0 -10.82422,9.60547 10.823051,9.6048222 0 0 0 10.82422,9.60351 10.823051,9.6048222 0 0 0 10.82227,-9.60351 10.823051,9.6048222 0 0 0 -10.82227,-9.60547 z m -109.62109,13.18359 a 10.823051,9.6048222 0 0 0 -10.82422,9.60352 10.823051,9.6048222 0 0 0 10.82422,9.60547 10.823051,9.6048222 0 0 0 10.82226,-9.60547 10.823051,9.6048222 0 0 0 -10.82226,-9.60352 z" />
    <path
       id="path1"
       style="fill:#000000"
       d="m 191.26953,44.876953 c -0.5564,-0.01666 -1.14383,0.0058 -1.77344,0.0625 -4.78833,0.430931 -12.66452,4.070191 -18.79687,8.685547 -3.2204,2.423735 -4.14355,3.99408 -4.12695,7.015625 l 0.0117,2.242187 2.95899,4.425782 c 4.58432,6.860646 6.53643,11.140585 7.57422,16.611328 0.57709,3.04244 0.61135,9.472276 0.0664,12.40039 l -0.38671,2.080079 -9.2793,0.177734 c -9.65796,0.184502 -10.18623,0.248992 -15.99805,1.957035 -1.232,0.36207 -3.82383,1.27015 -5.75976,2.01953 -3.12946,1.21133 -3.90961,1.38352 -7.03907,1.55273 -9.75166,0.52727 -20.83052,3.31303 -28.36523,7.13281 -7.24893,3.67498 -13.628221,8.25562 -19.453126,13.9668 -7.85518,7.70185 -13.446135,15.89013 -19.712891,28.87305 -6.993666,14.48882 -11.29083,28.42598 -13.570312,44.01758 -2.103437,14.38732 -2.098638,31.37604 0.01172,44.14257 3.233119,19.55873 10.930342,36.97217 23.089844,52.24024 1.366619,1.716 2.408526,3.11914 2.316406,3.11914 -0.09212,0 0.302183,0.42322 0.876953,0.93945 0.696958,0.62597 0.939976,1.04419 0.726563,1.25782 -0.176,0.17611 -1.744844,0.82834 -3.486328,1.44921 -4.424553,1.57741 -5.462554,2.6756 -4,4.23243 l 0.675781,0.71875 -1.394531,0.35156 c -0.767392,0.19425 -3.435929,0.9983 -5.929688,1.78515 -4.739572,1.4956 -7.853699,3.19721 -9.183593,5.01954 -0.881682,1.20807 -0.443941,2.99543 0.966796,3.94336 1.596952,1.07298 5.865786,2.34051 8.667969,2.57421 l 2.570313,0.21485 0.160156,1.43359 c 0.08887,0.78849 0.44464,1.81346 0.789062,2.27735 0.990056,1.33339 3.767596,2.54214 7.923829,3.44726 3.619428,0.78822 4.538466,0.84857 16,1.05859 9.445427,0.17307 12.696307,0.34099 14.560547,0.75 1.32,0.2896 6.86236,1.31708 12.31836,2.28516 11.52384,2.04473 15.34066,2.34205 34.08008,2.64844 l 11.67968,0.1914 2.08008,0.88282 c 2.81374,1.1949 5.70069,1.9103 8.96094,2.2207 5.8571,0.55763 17.69087,-0.32092 24.16015,-1.79297 6.15832,-1.40128 13.65479,-2.94018 17.02735,-3.49609 l 3.26562,-0.53907 2.17383,1.01563 c 1.19528,0.5583 2.46082,1.17256 2.8125,1.36523 2.42802,1.33021 15.67289,1.73843 19.21875,0.5918 1.68344,-0.54438 3.55845,-0.6547 16.30274,-0.95508 11.37273,-0.26806 15.23938,-0.4697 18.39843,-0.96093 4.21123,-0.65483 9.63163,-1.87284 12.32032,-2.76758 1.53432,-0.51062 4.51463,-0.7174 22.88085,-1.58203 2.376,-0.11186 4.96777,-0.32707 5.75977,-0.48047 0.792,-0.1534 2.88063,-0.43997 4.64063,-0.63477 6.4962,-0.71902 8.74191,-1.04923 13.26757,-1.95703 8.99014,-1.8033 12.92112,-3.1812 13.80664,-4.83594 0.48814,-0.91211 -0.29496,-2.39011 -1.77734,-3.35547 -2.19072,-1.42657 -12.03796,-3.34228 -20.125,-3.91406 -4.19618,-0.29667 -5.13594,-0.68279 -3.20312,-1.3164 1.67205,-0.54821 3.08728,-1.67625 3.82031,-3.04688 l 0.60937,-1.14258 -1.13086,-1.03906 c -1.01216,-0.9305 -1.59797,-1.13087 -5.59961,-1.91211 -2.45816,-0.47992 -5.2379,-1.02252 -6.17773,-1.20703 l -1.70898,-0.33594 2.52539,-2.61133 c 9.40939,-9.72852 16.20834,-20.82355 20.71875,-33.81054 4.28745,-12.34523 6.89057,-29.63226 6.89257,-45.77735 0.004,-32.07684 -10.38851,-64.3035 -28.41406,-88.10937 -13.72907,-18.13166 -30.88773,-29.76226 -51.74414,-35.072268 -9.3391,-2.377705 -16.47734,-3.195906 -27.83984,-3.191406 -7.08041,0.0028 -9.78585,0.160696 -19.20117,1.119141 l -1.91993,0.195312 -1.64453,-2.037109 c -0.99491,-1.231443 -2.78215,-4.309921 -4.51953,-7.783203 -2.61367,-5.225152 -3.74658,-7.739518 -7.6914,-17.103516 -1.70494,-4.04703 -5.94578,-12.061676 -7.97461,-15.068359 -4.48271,-6.643043 -6.84545,-8.73884 -10.74024,-8.855469 z m -2.15039,3.535156 c 0.46254,-0.04891 0.89459,-0.0378 1.3457,0.01563 2.97642,0.352514 4.70687,2.055635 8.80664,8.667969 5.19914,8.38532 9.25888,17.78073 11.57227,26.775391 0.92921,3.612858 2.13621,10.775909 1.86133,11.050781 -0.14165,0.141654 -3.20501,-4.479395 -4.80664,-7.251953 -0.46091,-0.797877 -2.85711,-6.486552 -5.32422,-12.640625 -4.56993,-11.399431 -5.22626,-12.62438 -6.42578,-11.982422 -0.32585,0.174392 -0.66481,0.433933 -0.75391,0.578125 -0.0891,0.144193 0.25155,1.550717 0.75781,3.125 2.23938,6.963555 3.32899,12.631432 3.85157,20.027344 0.25548,3.614922 0.25108,5.471081 -0.0176,7.064453 -0.39385,2.335811 -0.74719,2.543754 -1.0918,0.642578 -0.86614,-4.778421 -5.15547,-17.839522 -8.16797,-24.871094 -1.72749,-4.032195 -2.00236,-4.499669 -2.93359,-4.998047 -0.72651,-0.388813 -2.09475,0.796728 -1.62305,1.40625 0.66681,0.861622 2.36315,5.508715 3.13672,8.59375 0.63382,2.527663 0.86906,4.441658 1.00195,8.136719 0.19605,5.451183 -0.12872,8.018832 -1.4375,11.382813 -0.93104,2.392941 -1.42838,2.869787 -1.02734,0.984375 1.38835,-6.526966 0.0914,-15.234987 -3.32422,-22.31836 -1.63482,-3.390291 -4.39659,-7.094547 -5.00781,-6.716797 -0.14734,0.09106 0.43787,1.641019 1.29883,3.44336 2.29165,4.797472 2.99062,7.974961 3.01172,13.671875 0.0154,4.164153 -0.0652,4.870579 -0.78321,6.880859 l -0.79883,2.240234 -0.0762,-1.28125 c -0.56495,-9.641045 -3.20909,-17.313986 -8.88281,-25.771484 -2.30619,-3.43767 -2.45006,-3.75487 -2.30664,-5.052734 0.17171,-1.55405 0.84881,-2.392585 3.80469,-4.714844 l 1.86132,-1.462891 0.31641,0.835938 c 0.17466,0.459382 0.40714,1.188856 0.51563,1.621094 0.10848,0.432231 0.39078,0.785156 0.62695,0.785156 0.23618,0 0.56278,0.240534 0.72656,0.533203 0.2696,0.481745 0.31494,0.474085 0.47656,-0.08008 0.0982,-0.336669 0.36204,-1.742351 0.58594,-3.123047 l 0.40625,-2.509766 2.41211,-1.195312 c 3.35306,-1.662118 5.0245,-2.345459 6.41211,-2.492188 z m -14.62891,11.794922 c -0.12466,-0.02665 -0.23208,-0.01206 -0.30078,0.05664 -0.0653,0.06527 0.18797,0.508238 0.5625,0.984375 0.74704,0.949662 1.09957,0.916396 0.78516,-0.07422 -0.1395,-0.439527 -0.67289,-0.88684 -1.04688,-0.966797 z m 78.31055,38.074219 c 3.89238,-0.04343 10.56985,0.667143 15.70117,1.671875 17.00131,3.328915 31.33157,11.080485 44.14844,23.880855 13.45975,13.44253 25.52617,35.52659 31.47461,57.60547 4.2825,15.8953 5.92197,34.91911 4.50977,52.33203 -0.65379,8.06114 -1.84993,16.18768 -3.06641,20.83204 -1.17155,4.47279 -3.64679,10.99609 -4.17188,10.99609 -0.3417,0 -0.36358,0.29362 0.20313,-2.66797 0.26397,-1.37948 0.47384,-3.32379 0.46484,-4.32031 l -0.0156,-1.81055 -1.08203,2.5586 c -1.02553,2.42697 -1.2497,2.57044 -1.51368,0.96093 -0.0666,-0.40621 -0.50308,0.32268 -1.19531,1.9961 -0.59984,1.44999 -1.12632,2.60024 -1.16992,2.55664 -0.0436,-0.0436 0.12852,-2.45299 0.38281,-5.35547 0.74957,-8.5554 0.87332,-11.90389 0.48047,-12.9043 -0.49069,-1.24958 -1.09077,-0.91799 -1.39844,0.77149 -2.74977,15.10002 -6.06003,27.33111 -8.95507,33.08984 -1.08899,2.16615 -3.46132,6.00743 -3.61524,5.85351 -0.0558,-0.0557 0.46652,-2.45738 1.16016,-5.33789 1.34979,-5.60521 1.88777,-10.0933 1.33008,-11.08984 -0.28444,-0.50826 -0.41662,-0.3146 -0.88282,1.28906 -0.74303,2.55595 -2.84137,7.55345 -4.23632,10.08985 -2.10769,3.8321 -6.79297,10.50573 -6.79297,9.67578 0,-0.18043 0.5781,-1.76892 1.28515,-3.53125 2.05599,-5.12458 3.40474,-11.21753 2.59375,-11.71875 -0.20275,-0.1253 -0.35937,-0.0198 -0.35937,0.24414 0,1.50813 -4.50403,11.2485 -7.63086,16.5039 -1.61099,2.7077 -5.63419,7.34824 -6.0293,6.95313 -0.0823,-0.0823 1.15174,-2.86232 2.74414,-6.17773 1.66184,-3.46007 2.98129,-6.64227 3.09571,-7.46875 l 0.19921,-1.43946 -1.56054,2.71875 c -0.85829,1.496 -2.33396,3.87325 -3.2793,5.28125 -1.86527,2.77813 -6.7767,9.18807 -6.92578,9.03907 -0.0506,-0.0506 1.91461,-4.04823 4.36719,-8.88477 4.88504,-9.63361 7.05682,-14.74205 9.75195,-22.92773 7.1269,-21.64614 9.58678,-45.6075 7.07227,-68.90626 -0.36917,-3.42045 -0.41282,-3.56725 -0.61133,-2.08007 -0.19619,1.46979 -0.65642,8.85037 -1.50977,24.19531 -0.73201,13.16303 -2.64043,24.48048 -6.26367,37.14844 -5.85079,20.45641 -13.97347,34.87994 -27.44336,48.73047 -3.65609,3.75934 -5.04029,4.42645 -1.94141,0.93554 10.08726,-11.36312 17.75239,-23.71674 23.01563,-37.08984 2.13924,-5.43554 4.1001,-14.86405 3.89844,-18.75195 -0.26199,-5.05103 -0.59969,-4.58733 -2.61133,3.5957 -2.16035,8.78792 -2.92852,11.17257 -4.99024,15.47656 -2.5036,5.22672 -5.09911,8.81934 -9.73242,13.47266 -5.32752,5.35053 -6.13522,5.81039 -3.71484,2.11914 2.64719,-4.03722 5.7471,-9.33704 8.04101,-13.74805 1.54769,-2.976 2.0316,-4.24163 2.14454,-5.60351 0.10209,-1.23105 0.0218,-1.83554 -0.26954,-2.01563 -0.25206,-0.15578 -0.52361,-0.0769 -0.6875,0.19922 -0.14892,0.25085 -1.76128,2.97469 -3.58398,6.05469 -1.82271,3.07993 -4.44682,7.28302 -5.83008,9.33984 -6.49663,9.66005 -17.24519,19.17031 -23.22656,20.54883 -0.82396,0.18989 -0.79522,0.12088 0.53711,-1.25 2.08835,-2.14874 4.20312,-5.41212 3.58789,-5.53711 -0.26838,-0.0545 -2.0468,0.26152 -3.95117,0.70117 -1.90437,0.43966 -4.96013,0.89293 -6.79102,1.00781 l -3.32812,0.20899 -2.03125,2.00976 c -2.01707,1.99733 -6.04999,4.36322 -8.27149,4.85157 -0.88683,0.19495 -0.78772,0.0307 1.29297,-2.1543 3.1684,-3.32717 5.29729,-6.36524 4.46094,-6.36524 -0.0914,10e-6 -1.35217,1.0266 -2.80078,2.28126 -2.72923,2.36376 -8.23438,6.24445 -8.23438,5.80468 0,-0.13783 0.75825,-1.11874 1.6836,-2.17968 3.4173,-3.91843 6.50136,-8.78711 5.5664,-8.78711 -0.27083,0 -0.71785,0.3247 -0.99218,0.7207 -1.03862,1.4989 -6.81463,6.41495 -8.60938,7.32812 -2.00691,1.02111 -2.02459,0.89728 -0.19531,-1.32812 2.18002,-2.65209 4.69994,-6.60753 5.39843,-8.47461 0.38061,-1.01727 0.63998,-1.903 0.57618,-1.9668 -0.0638,-0.0638 -0.82505,0.92409 -1.69141,2.19336 -3.31347,4.85439 -9.36954,12.23877 -14.15234,17.25977 -2.25801,2.37043 -8.04996,7.1564 -7.09375,5.86133 0.25895,-0.35074 1.82463,-2.43816 3.47851,-4.63672 9.73412,-12.94028 20.91178,-32.23104 21.92383,-37.83594 0.23139,-1.28151 -0.001,-1.4643 -1.11719,-0.86719 -0.34688,0.18565 -1.91193,2.9038 -3.51953,6.11524 -1.59143,3.17908 -2.95886,5.71496 -3.03906,5.63476 -0.0802,-0.0802 0.88615,-3.17119 2.14648,-6.86719 2.3747,-6.96353 2.59473,-8.41601 1.27149,-8.41601 -0.83696,0 -1.07495,0.40437 -2.25195,3.83984 -3.62978,10.5942 -9.10471,21.87753 -15.23243,31.39063 -1.44028,2.23601 -3.18723,4.36498 -5.32226,6.48633 -1.74792,1.73663 -3.25049,3.0874 -3.33789,3 -0.0874,-0.0874 1.04694,-2.01396 2.51953,-4.2793 5.02043,-7.72318 8.25435,-13.41498 9.05664,-15.94141 1.23494,-3.88877 1.09903,-3.8373 -2.08399,0.78321 -1.68482,2.44574 -1.81144,2.50724 -1.32812,0.64062 0.1595,-0.616 0.38328,-1.8407 0.49609,-2.7207 l 0.20508,-1.59961 -0.69531,1.11914 c -3.55155,5.73258 -8.98415,9.72108 -15.47656,11.35937 -10.78827,2.72242 -18.56099,1.03989 -25.00196,-5.41406 -1.41818,-1.42104 -2.96412,-3.08908 -3.4375,-3.70508 l -0.86132,-1.11914 0.66015,1.75977 c 0.99019,2.63801 3.03347,6.28961 4.73633,8.46484 2.12092,2.70925 2.16223,2.79646 1.17187,2.41992 -1.51725,-0.57688 -4.35785,-2.56889 -5.83984,-4.09375 -2.15338,-2.21558 -5.95854,-7.34703 -8.32812,-11.23047 -1.14134,-1.87038 -1.99374,-3.11176 -1.89454,-2.75976 0.0992,0.352 0.84297,3.20233 1.65235,6.33398 0.80937,3.13172 1.55199,5.90388 1.65039,6.16016 0.36978,0.96364 -0.24675,0.38816 -2.26953,-2.11719 -2.19972,-2.72442 -3.47004,-4.85535 -8.00196,-13.41797 -2.71668,-5.13297 -3.61571,-6.40039 -4.53515,-6.40039 -0.97499,0 -0.39843,2.05123 1.77929,6.3418 5.67123,11.17307 13.69976,23.09537 21.22461,31.51367 1.22632,1.37192 2.16735,2.55727 2.08985,2.63477 -0.4323,0.4323 -5.33438,-3.40249 -7.89453,-6.17578 -8.34402,-9.03867 -14.73023,-17.8226 -22.09766,-30.39453 -1.98544,-3.388 -3.65127,-6.16016 -3.70117,-6.16016 -0.2367,0 1.52198,6.61403 2.55273,9.60156 1.5977,4.63083 5.0655,11.64396 7.79297,15.75977 1.2538,1.89193 2.20343,3.43945 2.11133,3.43945 -0.46984,0 -2.78238,-1.38893 -4.26953,-2.56445 -0.9259,-0.73188 -1.7549,-1.26073 -1.8418,-1.17383 -0.4057,0.40569 2.23877,4.18239 4.80078,6.85742 1.11507,1.16423 1.20834,1.36133 0.64453,1.36133 -0.72014,0 -2.12975,-0.97025 -5.06054,-3.48438 -1.04838,-0.89932 -2.05662,-1.631 -2.24024,-1.625 -0.18362,0.006 -1.27006,0.21712 -2.41406,0.46875 -3.11058,0.68421 -8.65918,0.61215 -11.64062,-0.15039 -5.18886,-1.32709 -10.36735,-4.49749 -15.36133,-9.4082 -2.57479,-2.53183 -7.20252,-7.98627 -11.66602,-13.74805 -1.61319,-2.08235 -2.93164,-3.67273 -2.93164,-3.53515 0,0.87761 5.88595,11.90053 8.26758,15.48242 4.20732,6.32763 6.29613,8.75664 13.98828,16.26953 6.90981,6.74878 8.09036,8.44339 3.54492,5.08984 -7.98419,-5.89056 -14.18893,-12.42064 -20.55273,-21.63281 -17.352264,-25.11884 -25.981171,-53.51785 -25.351564,-83.44336 0.07526,-3.57751 0.09472,-6.46381 0.04297,-6.41211 -0.05175,0.0517 -0.407739,2.60466 -0.791015,5.67188 -0.56841,4.54864 -0.697278,7.28823 -0.705078,14.85742 -0.01671,16.16977 1.547795,25.37106 7.61914,44.78125 1.318267,4.21455 2.34745,7.71504 2.285157,7.77734 -0.281381,0.28138 -8.026369,-10.04458 -13.621094,-18.16015 -3.88172,-5.63077 -4.305754,-6.20335 -4.033203,-5.43946 0.09419,0.264 0.681535,3.21655 1.30664,6.56055 0.625112,3.344 1.212448,6.36675 1.304688,6.71875 l 0.167969,0.64063 -0.511719,-0.64063 c -1.271474,-1.58978 -9.203781,-18.02679 -12.953125,-26.84375 -0.366096,-0.86091 -0.768158,-1.46231 -0.894532,-1.33594 -0.126367,0.12638 -0.182213,2.62993 -0.125,5.56446 0.111518,5.71885 -0.03236,6.07367 -1.246093,3.07031 L 65.90625,244 l 0.197266,2.08008 c 0.292955,3.0964 1.606512,9.34051 2.714843,12.9082 3.474461,11.18413 11.417539,24.36819 19.957032,33.125 3.994174,4.09585 15.083949,14.58968 20.716799,19.60352 2.05294,1.82735 3.68495,3.37128 3.62695,3.42968 -0.25945,0.2612 -8.14922,-4.05161 -11.57422,-6.32617 -7.45685,-4.95209 -13.624374,-10.83933 -19.367186,-18.48828 -12.467208,-16.60532 -19.757765,-35.2554 -21.673828,-55.45117 -1.144919,-12.06771 -1.104808,-20.01675 0.16211,-32 2.461831,-23.28546 10.220028,-44.67443 23.416015,-64.56055 7.183499,-10.82542 17.305389,-19.58323 29.357419,-25.40234 5.82382,-2.81192 14.83154,-5.07813 20.1875,-5.07813 h 1.50977 l -1.4082,1.01563 c -5.69681,4.10554 -13.22026,11.31424 -17.30469,16.58398 -7.92465,10.22437 -15.03199,25.16476 -19.294924,40.5586 -0.621764,2.24521 -1.634179,5.88153 -2.25,8.08007 -1.067574,3.8115 -1.436531,6.24691 -0.847656,5.58594 0.148965,-0.1672 0.812944,-2.249 1.476562,-4.625 2.095327,-7.50195 5.248878,-15.16285 10.121098,-24.59375 5.55224,-10.74734 10.25856,-17.92004 16.20117,-24.68554 9.14385,-10.41015 21.01694,-18.64009 31.28906,-21.68946 5.24065,-1.55572 11.91872,-2.43916 15.91992,-2.10547 2.22252,0.18535 2.4925,0.26961 1.96875,0.61914 -0.33385,0.22279 -1.29091,0.88496 -2.125,1.47071 -1.62417,1.14057 -2.03916,2.05795 -0.80273,1.77343 5.27014,-1.21271 6.81144,-1.5205 7.19531,-1.4414 0.29632,0.0611 -0.17307,0.78558 -1.34766,2.08203 -6.92297,7.64129 -12.90586,18.01278 -16.11328,27.93164 -1.24093,3.83758 -2.61628,9.08862 -2.61328,9.97656 8.3e-4,0.23282 0.84527,-1.30401 1.875,-3.41601 3.61392,-7.41226 8.77737,-16.99001 10.79102,-20.01563 3.81894,-5.73817 8.55274,-10.92778 13.75195,-15.07031 5.47993,-4.36614 5.86535,-4.38749 2.03125,-0.11523 -6.09224,6.78848 -12.97249,17.21627 -13.61914,20.64062 -0.19435,1.0292 -0.007,0.87361 2.30469,-1.91992 5.43611,-6.56932 12.21606,-14.34887 14.36523,-16.48242 2.87014,-2.84935 7.13559,-6.05204 9.6543,-7.24805 2.74913,-1.305425 6.20974,-1.648108 12.45117,-1.230469 13.7579,0.920599 26.03295,4.930989 36.83398,12.033199 4.63836,3.04994 11.95253,7.48633 12.3418,7.48633 1.01113,0 -5.53596,-6.7432 -9.68164,-9.97265 -4.52438,-3.52459 -8.88669,-6.09996 -14.38086,-8.49024 l -1.75976,-0.765623 4.16601,0.171875 c 12.88141,0.533838 24.62261,3.752728 36.91797,10.123048 2.70846,1.40329 5.01273,2.46578 5.11914,2.35937 0.43216,-0.43216 -6.18303,-5.40363 -10.20312,-7.66796 -4.90878,-2.76492 -10.71602,-4.922118 -16.32032,-6.060552 l -2.08007,-0.421875 z m -8.49805,27.20703 c -0.74307,0.0721 -1.18924,0.24704 -1.86914,0.57617 -1.08095,0.52328 -1.47275,0.89696 -1.46875,1.4043 0.009,1.31576 0.29455,1.38819 5.43555,1.40039 8.63927,0.0205 13.25584,1.26912 18.08008,4.88867 1.408,1.05642 2.65876,1.92156 2.7793,1.92188 0.12054,3.1e-4 0.5876,-0.14085 1.03906,-0.3125 2.08591,-0.79306 -0.235,-3.68892 -4.72266,-5.89258 -5.37263,-2.63825 -9.48315,-3.67543 -15.62305,-3.94531 -1.8675,-0.0821 -2.90725,-0.11308 -3.65039,-0.041 z m -110.03125,2.95899 c -0.48557,-0.18633 -3.05095,2.31854 -3.06445,2.99218 -0.0142,0.70841 0.61399,0.43147 2.08008,-0.91992 1.5195,-1.40063 1.70616,-1.79528 0.98437,-2.07226 z m 4.22071,1.64062 c -1.32915,0.0746 -2.79582,0.80711 -4.83203,2.35156 -1.87494,1.42208 -4.69922,4.53073 -4.69922,5.17188 0,0.50092 0.24977,0.39009 3.15039,-1.40039 1.52277,-0.93997 4.17267,-2.46349 5.88867,-3.38672 1.716,-0.92322 3.11914,-1.80497 3.11914,-1.95899 0,-0.15403 -0.59587,-0.44202 -1.32617,-0.63867 -0.42843,-0.11536 -0.85773,-0.16355 -1.30078,-0.13867 z m 9.05469,5.91406 c -0.49945,-0.0103 -1.12173,0.0168 -1.89258,0.0742 -4.36212,0.3251 -10.68933,3.59778 -14.87891,7.69531 -3.8458,3.76137 -5.04607,5.83089 -3.99219,6.88477 0.76361,0.76361 1.97871,0.43698 2.78711,-0.75 1.20665,-1.77172 5.94839,-6.1023 7.96289,-7.27148 2.81129,-1.63165 5.54064,-2.70954 8.86914,-3.50196 l 3.03711,-0.72265 v -1.03907 c 0,-0.96313 -0.39429,-1.33836 -1.89257,-1.36914 z m 102.6875,2.12891 c -1.22385,-0.0112 -2.28167,0.0803 -3.0879,0.28516 -4.80496,1.22069 -8.91763,4.265 -11.08398,8.20507 -1.91701,3.48663 -2.24979,4.97406 -2.05469,9.1875 0.37601,8.12026 3.41063,15.24863 9.16016,21.51953 1.07361,1.17099 1.95117,2.27417 1.95117,2.44922 0,0.17505 -0.34991,0.93547 -0.7793,1.69141 -0.42938,0.75595 -0.70889,1.49079 -0.62109,1.63281 0.23412,0.37881 0.17405,0.40355 3.56445,-1.49023 3.53814,-1.97626 4.91011,-2.5149 8.55664,-3.36133 4.39395,-1.0199 7.46273,-1.3498 12.45508,-1.3418 7.33131,0.0119 12.86319,1.1254 20.8457,4.19922 l 2.37891,0.91602 v -4.21094 c -2.5e-4,-4.54009 -0.61575,-7.60062 -2.42187,-12.04492 -4.72745,-11.63243 -14.34528,-21.01606 -25.73438,-25.10742 -4.29746,-1.54385 -9.45742,-2.49584 -13.1289,-2.5293 z m 0.90234,4.71875 c 0.55741,0.0141 1.19137,0.0686 1.95898,0.1543 4.14673,0.46297 6.81062,1.18944 10.2168,2.78515 3.71324,1.73956 6.24779,3.54707 9.26953,6.61328 l 2.3418,2.375 -0.81055,0.53125 c -1.13797,0.74562 -1.40912,0.67035 -3.39258,-0.94921 -8.33497,-6.80619 -20.44748,-10.10397 -26.80078,-7.29688 -0.924,0.40828 -1.67969,0.61868 -1.67969,0.46875 0,-0.42419 2.89634,-2.73365 4.32032,-3.44531 1.91201,-0.95558 2.90393,-1.27857 4.57617,-1.23633 z m -104.21094,7.23047 c -6.24189,0 -14.66009,4.34159 -20.875,10.76758 -6.09679,6.30387 -9.95799,13.47007 -11.52734,21.39257 -0.97864,4.94049 -0.23593,17.94302 1.07226,18.77344 0.67449,0.42816 0.84743,0.34738 4.52735,-2.0957 4.0333,-2.67771 6.48951,-3.97032 10.42187,-5.48828 8.29919,-3.20359 16.96793,-3.82448 26.52344,-1.89844 2.87672,0.57986 4.37373,0.75518 4.5918,0.53711 0.35884,-0.35884 0.0585,-1.66797 -0.38282,-1.66797 -0.15408,0 -0.78508,-0.29713 -1.40039,-0.66016 l -1.11718,-0.66015 1.54492,-2.36719 c 3.11837,-4.77691 4.78274,-10.05502 5.04492,-15.99219 0.56379,-12.76758 -6.46267,-20.64062 -18.42383,-20.64062 z m 0.92578,5.15039 c 2.411,0.13288 4.7473,0.78748 6.62891,1.94336 1.09253,0.67114 1.45459,1.46835 0.48047,1.05859 -0.308,-0.12955 -2.07565,-0.30638 -3.92578,-0.39258 -4.99343,-0.23253 -8.24894,0.73591 -12.9961,3.86328 -3.48476,2.29582 -6.89741,5.37139 -9.27148,8.35743 -1.19756,1.50626 -2.39932,2.72995 -2.67188,2.71875 -0.78882,-0.0323 -1.93554,-0.57027 -1.93554,-0.90821 0,-0.17013 0.85247,-1.58475 1.89453,-3.14257 3.40254,-5.08695 9.23988,-9.96882 14.71875,-12.31055 2.18057,-0.932 4.66713,-1.32038 7.07812,-1.1875 z m 105.70508,3.58008 c 1.41169,-0.081 3.56562,0.27615 5,0.9082 3.14845,1.38734 4.14585,3.20042 4.15625,7.55469 l 0.008,2.95508 -1.36132,1.4121 c -0.8522,0.88491 -1.83661,1.54333 -2.63868,1.76368 -2.31927,0.63717 -3.76955,0.346 -6.04101,-1.2168 -2.7712,-1.90664 -3.93407,-4.27935 -3.61133,-7.36719 0.31451,-3.00896 1.30665,-4.70639 3.37891,-5.77734 0.25173,-0.1301 0.63881,-0.20543 1.10937,-0.23242 z m 22.67188,0.67383 c -0.0569,-0.17672 0.0785,-0.067 0.39062,0.27929 1.81631,2.01511 4.43369,7.36406 5.30664,10.84375 0.66591,2.65446 0.16547,2.74947 -0.59766,0.11328 -0.80058,-2.76572 -2.46919,-6.53675 -4.33398,-9.79492 -0.45857,-0.80123 -0.70875,-1.26475 -0.76562,-1.4414 z m -129.73047,12.03124 c 1.60468,0.13984 3.32847,0.72235 4.36328,1.63086 3.45628,3.03472 2.32735,10.57853 -1.86914,12.48438 -1.48947,0.67644 -3.88046,0.7498 -5.79297,0.17773 -2.02918,-0.60696 -3.99305,-3.96506 -3.99805,-6.83593 -0.004,-2.46799 1.67721,-5.27225 4.15039,-6.92383 0.41339,-0.27606 0.97341,-0.44654 1.61133,-0.52149 0.47844,-0.0562 1.00026,-0.0583 1.53516,-0.0117 z m -22.6543,4.49805 c 0.0899,-0.007 0.18301,0.0556 0.28906,0.16797 0.16405,0.17387 -0.0456,1.56811 -0.50195,3.33789 -0.4311,1.672 -0.98562,4.76886 -1.23242,6.88086 l -0.44922,3.83984 0.11133,-4.80078 c 0.0826,-3.58832 0.27071,-5.34911 0.74609,-6.97461 0.52159,-1.78345 0.76742,-2.42928 1.03711,-2.45117 z m 68.74609,0.95117 c -0.80003,0.0464 -1.56844,0.3218 -2.15625,0.81641 -3.20559,2.69738 -9.74352,17.25055 -10.97461,24.42969 -0.32869,1.9168 -0.30472,2.37669 0.19141,3.67578 0.75889,1.98711 2.2425,3.08808 4.5957,3.41016 3.0225,0.41361 27.95651,0.19509 28.75,-0.25196 1.20201,-0.67723 1.54951,-2.07604 0.95118,-3.83203 -1.52332,-4.47062 -16.42237,-26.1732 -19.01172,-27.69336 -0.71392,-0.41911 -1.54567,-0.60109 -2.34571,-0.55469 z m 0.0273,3.66016 1.59179,1.51172 c 0.70343,0.38418 2.8436,2.70868 3.61524,4.02148 0.5228,0.88943 0.51342,0.98719 -0.23633,2.60547 -1.16205,2.50815 -2.61801,7.39194 -3.03906,10.19727 -0.1669,1.11199 -0.31051,2.00349 -0.41211,2.60937 l 0.0781,0.20117 -0.95507,4.69532 -2.44532,0.12304 -0.004,-0.002 c -1.35585,0.19464 -4.47642,0.0704 -5.9668,-0.33008 -0.85593,-0.22998 -1.67914,-0.61527 -1.83008,-0.85742 -0.62552,-1.00351 -0.70964,-3.34054 -0.1914,-5.32617 0.73048,-2.79911 3.05651,-8.65136 4.86914,-12.24805 0.77627,-1.54032 1.35708,-2.44231 1.58984,-2.60351 0.0229,-0.0158 -0.002,0.0659 0.0137,0.0645 l 0.0684,-0.18164 2.28711,-3.37109 z m 103.77929,12.35742 -2.44921,3.42383 c 0.017,0.0233 0.13281,0.0498 0.13281,0.0703 0,0.345 -3.9077,3.99203 -7.31055,6.82422 -8.3109,6.91716 -18.905,13.22357 -29.16992,17.36328 -1.84797,0.74527 -3.46159,1.29175 -3.58594,1.21485 -0.1244,-0.0768 -0.20965,-3.91501 -0.18945,-8.5293 0.0357,-8.14792 -0.2755,-15.48427 -0.64258,-15.11719 -0.22448,0.22448 -0.19741,-0.0463 -0.82812,7.84766 -0.52389,6.55631 -1.16968,11.98897 -1.83594,15.42383 -0.34596,1.78344 -0.38535,1.83208 -1.8125,2.31836 -2.21302,0.75398 -2.30469,0.71015 -2.30469,-1.11915 0,-2.07741 -0.94949,-6.33303 -1.27539,-5.71679 -0.13174,0.24909 -0.71943,2.22794 -1.30664,4.39648 -1.03293,3.81455 -1.10347,3.95806 -2.16211,4.40039 -0.60182,0.25145 -1.49997,0.45703 -1.99609,0.45703 -0.49612,0 -0.98088,0.12697 -1.07618,0.28125 -0.24209,0.39171 0.70254,3.49609 1.46094,4.80469 0.34652,0.59787 0.51438,1.19661 0.37305,1.33008 -0.30239,0.28559 -8.15806,2.82553 -11.95899,3.86719 l -2.64257,0.72461 -1.54297,-1.74414 c -0.84844,-0.95947 -1.98615,-2.57199 -2.52735,-3.58399 -1.13192,-2.11657 -0.82764,-2.04661 -5.90625,-1.35547 -4.89419,0.66605 -19.74141,1.18643 -30.24023,1.06055 l -8.79883,-0.10547 -0.0918,3.80664 -0.0898,3.80664 -2.46875,-0.19336 c -2.6907,-0.21177 -8.62438,-1.1814 -12.17187,-1.98828 -2.56594,-0.5836 -2.53992,-0.53928 -2.65235,-4.31055 -0.10368,-3.47778 -0.0765,-3.43365 -2.15625,-3.67773 -0.9955,-0.11683 -2.88898,-0.45884 -4.20898,-0.75977 l -2.40039,-0.54687 -0.21875,-1.9082 c -0.31335,-2.74403 -0.90135,-18.53063 -0.93555,-25.10743 -0.0269,-5.18436 -0.0617,-5.49967 -0.46094,-4.23046 -0.23717,0.75401 -0.74669,3.13126 -1.13281,5.28125 -0.6034,3.35984 -0.72267,5.43265 -0.85156,14.75195 -0.0825,5.96331 -0.24263,10.69532 -0.35547,10.51562 -0.11284,-0.17969 -1.28547,-0.63933 -2.60547,-1.02148 -7.9344,-2.29704 -15.69866,-5.31511 -22.79688,-8.86133 -3.72148,-1.85926 -10.18064,-5.47272 -11.11132,-6.19922 l -0.0645,0.0703 -3.41015,-1.60547 c -0.18696,0.41835 -0.40219,0.87927 -0.69141,1.40625 -0.47874,0.87228 -0.64245,1.09582 -1.00976,1.74218 l 1.90234,4.09766 c 0.39059,0.23535 1.01035,1.41087 2.28906,4.27149 4.73766,10.5985 11.62847,20.53276 20.16406,29.06835 13.85061,13.85062 28.42307,21.55604 45.12891,23.86329 3.04901,0.42113 15.45297,0.3767 17.35938,-0.0625 l 0.88085,-0.20313 v -4.58984 c 1e-5,-5.05825 0.062,-5.22852 2.375,-6.43946 1.13727,-0.5954 5.85289,-1.02385 8.88868,-0.80664 l 2.22265,0.16016 1.24805,1.6543 c 1.35003,1.78802 2.89805,4.95899 3.48438,7.13867 l 0.36718,1.36133 1.34571,-0.18946 c 4.60281,-0.6437 10.97785,-1.90782 15.24023,-3.02343 13.38407,-3.5033 26.52771,-10.11012 37.30664,-18.75 7.38126,-5.91653 15.94329,-15.39282 21.64648,-23.96094 4.83842,-7.26885 10.05967,-19.20523 11.51368,-26.32031 0.13356,-0.65358 0.25626,-1.05602 0.38476,-1.37305 l 0.66211,-4.58399 c -0.91419,-0.34751 -1.86719,-0.61505 -2.92969,-0.82031 z m -7.71289,23.52539 c 0.25146,0.15542 -1.76651,3.77021 -4.45117,7.97266 -7.22265,11.3061 -18.95494,23.02645 -29.67187,29.64062 -9.95135,6.14175 -20.45486,10.30618 -32.55469,12.91016 -5.19184,1.11731 -5.14829,1.12341 -4.89844,-0.55078 0.44324,-2.96997 0.87948,-4.37737 1.40235,-4.52539 0.29208,-0.0827 1.39517,-0.31824 2.45117,-0.52149 13.69132,-2.63509 28.09368,-8.70702 39.35937,-16.5957 9.20406,-6.44504 18.52025,-15.59551 25.6836,-25.22266 1.33567,-1.79511 2.54159,-3.19272 2.67968,-3.10742 z m -173.99804,8.30078 c 0.0114,-0.2386 0.67223,0.61366 2.85156,3.51172 3.91137,5.20145 11.93783,13.59961 12.99805,13.59961 0.19963,0 -0.77098,-1.40314 -2.15821,-3.11914 -3.82259,-4.72857 -7.41711,-9.71934 -7.41211,-10.29101 0.002,-0.2807 1.31989,0.90656 2.92969,2.63671 11.79624,12.67863 27.14631,23.12221 43.94531,29.90235 6.10112,2.46241 13.13294,4.22747 16.86133,4.23047 0.64961,5.6e-4 1.25816,0.1242 1.35156,0.27539 0.1885,0.30499 -2.37365,0.58821 -8.14453,0.89843 -3.41896,0.18384 -3.82812,0.26683 -3.82812,0.78907 0,0.75995 0.47634,0.84515 6.1582,1.0957 2.64475,0.11663 4.64042,0.33532 4.54102,0.49609 -0.0975,0.15775 -0.70788,0.28707 -1.35742,0.28907 -2.26331,0.007 -3.58204,0.36226 -3.58204,0.96484 0,0.76448 0.61297,0.94688 3.30664,0.98438 1.26161,0.0175 2.65375,0.1462 3.09375,0.28711 1.29464,0.41455 -6.47156,0.29417 -10.56054,-0.16407 -13.19063,-1.47822 -24.81918,-6.61044 -36.97266,-16.3164 -9.68181,-7.73211 -20.8418,-21.53753 -23.84961,-29.50391 -0.10809,-0.28628 -0.17569,-0.48687 -0.17187,-0.56641 z m 64.74218,9.65039 2.49415,0.21094 c 1.37199,0.11597 2.83265,0.21094 3.24609,0.21094 0.67442,0 0.75195,0.14242 0.75195,1.39844 0,0.77 -0.0892,1.85039 -0.19922,2.40039 l -0.20117,1 h -2.66015 c -1.46361,0 -2.73076,-0.11061 -2.81446,-0.2461 -0.0837,-0.1355 -0.25662,-1.3109 -0.38476,-2.61132 z m 26.78711,21.5918 c 1.83364,0.06 3.43261,0.20953 3.55469,0.33203 0.25613,0.25701 -0.44903,3.45743 -0.76172,3.45703 -0.11445,-1.4e-4 -1.28742,-0.23057 -2.60742,-0.51172 -1.71446,-0.36511 -3.35952,-0.46511 -5.75977,-0.3496 -2.03671,0.098 -4.14247,0.41016 -5.3457,0.79296 -1.09171,0.34731 -2.06385,0.55334 -2.16015,0.45704 -0.0963,-0.0963 -0.17383,-0.51467 -0.17383,-0.92969 0,-0.92075 0.21882,-1.01191 5.69336,-2.33594 3.66014,-0.88526 4.67312,-1.00661 7.56054,-0.91211 z m 6.28711,2.19141 c 0.29729,-0.003 2.53807,3.9428 2.53907,4.4707 5.5e-4,0.26801 -0.31069,1.56672 -0.69141,2.88672 -0.38072,1.32 -0.78855,2.51332 -0.90625,2.65039 -0.1177,0.13707 -0.76131,-0.91753 -1.42969,-2.3418 l -1.21484,-2.58984 0.75976,-2.53711 c 0.41824,-1.39591 0.84376,-2.53818 0.94336,-2.53906 z" />
  </g>
</svg>
